<?xml version="1.0" standalone="no"?>
<!DOCTYPE svg PUBLIC "-//W3C//DTD SVG 1.1//EN" "http://www.w3.org/Graphics/SVG/1.1/DTD/svg11.dtd" >
<svg xmlns="http://www.w3.org/2000/svg" xmlns:xlink="http://www.w3.org/1999/xlink" version="1.1">
<metadata></metadata>
<defs>
<font id="typo_comics_demoregular" horiz-adv-x="1667" >
<font-face units-per-em="2048" ascent="1638" descent="-410" />
<missing-glyph horiz-adv-x="539" />
<glyph unicode="&#xd;" horiz-adv-x="160" />
<glyph horiz-adv-x="160" />
<glyph horiz-adv-x="160" />
<glyph unicode=" "  horiz-adv-x="539" />
<glyph unicode="&#x09;" horiz-adv-x="539" />
<glyph unicode="&#xa0;" horiz-adv-x="539" />
<glyph unicode="!" horiz-adv-x="634" d="M80 86q0 12 6 24q5 7 11 21q7 13 10 21q32 63 113 63q22 0 48 -5q42 -7 73 -33q24 -21 24 -45q0 -12 -6 -25l-21 -42q-31 -65 -114 -65q-22 0 -46 5q-42 7 -72 34q-26 23 -26 47zM143 557q0 4 2 10l147 834q15 84 139 84h5q54 -1 87 -22q31 -20 31 -51q0 -5 -1 -11 l-147 -834q-15 -84 -141 -84h-5q-52 0 -85 21q-32 21 -32 53z" />
<glyph unicode="&#x22;" horiz-adv-x="870" d="M81 997v6q0 6 1 13q5 81 17 200q13 161 19 240q3 38 44 54q27 12 60 12q15 0 32 -3q52 -6 87 -33q29 -24 33 -57q2 -9 2 -18l-37 -440q-3 -36 -45 -54q-27 -12 -59 -12q-15 0 -31 3q-54 8 -88 35q-30 22 -35 54zM497 982q0 6 1 12q5 87 15 221q10 124 16 211q4 82 126 82 h9q52 0 88 -21q33 -19 37 -49q1 -6 1 -12q-6 -87 -16 -211q-10 -134 -15 -221q-6 -83 -127 -83h-9q-53 0 -89 21q-32 20 -37 50z" />
<glyph unicode="#" horiz-adv-x="1458" d="M50 525q0 35 30 60q34 29 90 30q13 2 143 2q27 1 37 1q14 80 14 78q16 93 31 192q-73 -1 -136 -1h-59q-57 0 -90 27q-30 25 -30 60v3q0 33 29 54q34 25 91 25q30 -1 65 -1q67 0 150 4q6 83 6 152q0 34 -2 64v3q0 39 38 62q36 21 88 21q53 0 90 -21q44 -24 45 -65 q2 -31 2 -67q0 -60 -5 -132q136 4 183 6q12 144 16 196q3 41 47 65q37 21 91 21q53 0 87 -23q36 -22 36 -57v-6q-3 -34 -15 -186q59 0 99 -1q57 -2 90 -30q30 -26 30 -59q0 -34 -30 -58q-30 -23 -78 -23h-12q-49 2 -112 2q-12 -165 -21 -281q123 8 201 14q12 1 24 1 q85 0 126 -72q9 -16 9 -31q0 -14 -9 -27q-21 -29 -81 -35q-123 -10 -284 -19q-19 -231 -39 -389q-6 -40 -49 -64q-36 -20 -86 -20h-7q-53 0 -87 21q-33 21 -33 53q0 4 1 10q20 156 39 378q-143 -3 -233 -6q-61 -302 -103 -392q-29 -60 -116 -60q-21 0 -48 4q-51 8 -78 33 q-18 18 -18 39q0 15 8 30q34 72 92 337l-150 -1h-9q-48 0 -78 22q-30 23 -30 57zM613 626q79 3 214 4q10 149 21 282q-66 -4 -189 -7q-16 -123 -43 -260q0 -3 -2 -9q-1 -7 -1 -10z" />
<glyph unicode="$" horiz-adv-x="1610" d="M80 176v7q0 26 27 51q48 42 101 42q31 0 64 -15q231 -109 411 -132q66 390 98 585q-186 53 -264 98q-131 75 -177 211q-14 38 -14 75q0 134 168 260q168 129 363 172q24 6 63 12q19 100 34 184q13 85 139 85h5q52 -1 85 -22t33 -53q0 -4 -1 -10q-12 -66 -31 -170 q347 -18 347 -216q0 -24 -6 -51q-17 -84 -143 -84h-4q-53 1 -86 22q-30 20 -30 50q0 6 2 12q3 13 3 25q0 77 -110 81l-100 -595q403 -141 403 -378q0 -12 -1 -24q-32 -399 -542 -429l-30 -159v3q-13 -84 -135 -84h-9q-52 0 -85 21t-33 53q0 4 1 10q20 93 32 165 q-299 33 -518 136q-54 26 -60 62zM601 1082q0 -116 208 -200q12 69 39 228q24 147 38 228q-170 -63 -219 -118q-66 -74 -66 -138zM947 147q45 15 60 21q99 45 155 120q40 56 40 110q0 37 -19 75q-50 91 -156 150q-30 -185 -80 -476z" />
<glyph unicode="%" horiz-adv-x="1514" d="M80 999v12q0 90 42 180q48 102 129 146q0 1 3 1q3 2 5 2q9 6 18 10q61 27 126 27q64 0 133 -25q138 -53 200 -168q28 -54 28 -105q0 -75 -63 -143q-84 -90 -238 -130q-60 -17 -117 -17q-68 0 -131 24q-132 50 -135 186zM287 71q0 15 9 30q150 252 326 585 q241 454 255 540q6 40 49 64q41 20 93 20q54 0 87 -23q33 -19 33 -51q0 -4 -1 -10q-21 -129 -264 -585q-192 -360 -326 -585q-33 -56 -117 -56q-24 0 -52 5q-53 7 -77 33q-15 15 -15 33zM341 1011q0 -31 9 -51h8q75 17 115 54q30 30 30 65q0 22 -13 48q-23 45 -71 72 q-1 0 -6 3q-16 -17 -31 -45q-33 -62 -38 -102q-3 -24 -3 -44zM749 221v12q0 90 42 180q50 102 129 145q2 0 5 2q1 1 3 1q9 6 19 11q62 27 126 27q65 0 134 -26q138 -52 199 -169q29 -54 29 -104q0 -75 -63 -142q-86 -90 -239 -131q-63 -16 -120 -16q-67 0 -127 22 q-132 51 -137 188zM1010 237q0 -34 11 -57q6 2 7 2q74 16 114 54q32 30 32 64q0 24 -14 48q-24 45 -70 71q-2 1 -8 3q-16 -15 -31 -44q-32 -63 -38 -102q-3 -21 -3 -39z" />
<glyph unicode="&#x26;" horiz-adv-x="1460" d="M80 370q0 36 9 72q65 267 353 388q-116 194 -116 344q0 108 62 193q67 93 186 137q70 25 138 25q46 0 91 -12q135 -36 209 -129q67 -85 67 -199q0 -20 -1 -39q-30 -305 -311 -404q69 -133 134 -229q-2 21 -6 37q-3 11 -3 20q0 31 27 55q30 26 82 33q17 3 32 3 q31 0 60 -12q45 -16 54 -54q15 -66 15 -127q0 -101 -41 -188q84 -57 170 -70q60 -9 81 -39q9 -14 9 -29t-9 -31q-36 -68 -116 -68q-16 0 -34 3q-114 18 -222 80q-128 -107 -314 -132q-54 -8 -108 -8q-129 0 -252 47q-123 48 -193 162q-53 84 -53 171zM343 329 q0 -145 189 -169q30 -5 57 -5q145 0 238 105q-151 146 -289 399q-162 -117 -191 -285q-4 -24 -4 -45zM587 1211q0 -12 2 -24q9 -118 87 -277q142 73 142 253v26q-10 168 -96 168h-3q-132 -6 -132 -146z" />
<glyph unicode="'" horiz-adv-x="523" d="M120 1141q0 129 3 314q0 38 41 54q27 12 60 12q15 0 32 -3q52 -7 89 -33q30 -24 37 -57q2 -9 2 -18q-3 -163 -3 -280q0 -67 6 -99q1 -8 1 -15q0 -30 -28 -50q-34 -21 -86 -21q-54 0 -94 21q-46 24 -54 65q-6 33 -6 110z" />
<glyph unicode="(" horiz-adv-x="739" d="M40 440q0 65 6 131q51 526 417 914q35 36 96 36q33 0 75 -10q50 -13 66 -37q8 -10 8 -22q0 -19 -20 -40q-316 -337 -382 -819q-12 -90 -12 -171q0 -416 306 -636q36 -26 36 -52q0 -5 -2 -10q-7 -27 -49 -45q-50 -22 -90 -22q-45 0 -80 26q-375 270 -375 757z" />
<glyph unicode=")" horiz-adv-x="739" d="M20 -274q0 19 20 40q316 337 382 819q12 90 12 171q0 416 -306 636q-36 26 -36 52q0 5 2 10q7 27 49 45q50 22 90 22q45 0 80 -26q375 -270 375 -757q0 -65 -6 -131q-51 -526 -417 -914q-35 -36 -96 -36q-33 0 -75 10q-50 13 -66 37q-8 10 -8 22z" />
<glyph unicode="*" horiz-adv-x="1170" d="M75 855q0 38 37 60q86 53 271 166q-145 76 -241 121q-56 26 -60 62q-2 4 -2 9q0 27 29 51q46 42 99 42q31 0 64 -17q93 -45 228 -100q9 126 45 210q26 63 114 62q87 0 99 -63q9 -107 -2 -210q150 56 253 101q37 17 68 17q53 0 89 -42q24 -24 18 -51q-1 -5 -4 -9 q-12 -36 -74 -62q-106 -45 -268 -121q60 -45 260 -176q32 -22 24 -60q-9 -37 -50 -60q-52 -28 -99 -28q-46 0 -86 28q-9 8 -153 98q-20 13 -28 19q-19 -100 -22 -168q0 -6 -1 -13q-7 -30 -41 -48q-33 -20 -78 -23h-3q-44 3 -73 23q-30 18 -30 48q0 7 2 13q12 68 15 168 q-9 -6 -32 -19q-136 -80 -146 -88q-47 -28 -93 -28q-47 0 -92 28q-36 23 -37 60z" />
<glyph unicode="+" horiz-adv-x="1411" d="M80 629q0 34 30 55q27 20 68 20q10 0 22 -2q174 -15 411 -22q-12 136 -12 237q0 51 3 93q5 40 47 64q37 21 91 21q53 0 87 -22q36 -23 36 -57v-6q-3 -42 -3 -93q0 -102 12 -242q170 -3 339 -3q57 0 90 -25q30 -24 30 -59q0 -34 -30 -58q-33 -27 -90 -27q-166 0 -324 1 q9 -115 9 -210q0 -121 -15 -210q-15 -84 -141 -84h-4q-53 2 -86 23q-31 21 -31 51q0 4 1 10q15 87 15 206q0 99 -10 220q-243 8 -425 23q-55 4 -88 34q-30 27 -32 62z" />
<glyph unicode="," horiz-adv-x="476" d="M10 -264q0 26 23 48q29 29 69 87.5t43 215.5q0 41 -6 86q-2 6 -2 12q0 31 30 51q32 21 82 22h5q121 0 135 -85q7 -47 7 -90q0 -150 -68 -263q-92 -145 -160 -166q-20 -2 -37 -2q-92 0 -116 60q-5 12 -5 24z" />
<glyph unicode="-" horiz-adv-x="877" d="M80 684v3q0 42 29 68q33 30 85 30h6l466 -5q57 -3 90 -36q30 -32 30 -73q0 -44 -30 -74q-32 -30 -84 -30h-6l-466 5q-57 3 -90 38q-30 30 -30 74z" />
<glyph unicode="." horiz-adv-x="1547" d="M100 -282v1710h1335v-1710h-1335zM135 -242h1264v1640h-1264v-1640zM199 438q18 24 50 24h9q28 -5 28 -40q0 -34 -33 -49q-12 -5 -27 -7v-37h-1q-5 0 -14 3v34h-5l-5 1q0 11 5 19h5q0 41 -6 41q-6 7 -6 11zM211 -108q0 5 11 16h3q8 -18 30 -18q18 0 18 20q0 15 -21 18 q-27 0 -32 12q-4 8 -4 12v8q0 34 42 34q24 -5 24 -21v-1q-1 -2 -12 -9h-3q0 7 -13 8h-1q-13 0 -20 -10v-4q0 -6 31 -6q27 -12 27 -38v-5q0 -28 -22 -38q-5 -3 -10 -3h-9q-23 0 -39 25zM224 435q1 -35 1 -47q1 0 1 -2q29 6 37 17q8 10 8 18q0 18 -15 21h-6q-26 -3 -26 -7z M288 374q0 40 32 53l11 1q23 -4 23 -22v-6q0 -20 -39 -36h-10q0 -11 17 -16q11 0 21 18h4q8 -12 8 -15q-17 -22 -30 -22h-7q-26 0 -30 45zM296 -16h15v9q0 46 5 46l15 -5q-2 -23 -2 -36v-14q13 3 15 3q2 -20 2 -24h-2q-9 -1 -15 -1q3 -63 5 -91q-12 -2 -17 -2v1q-5 61 -5 88 l-2 2h-14v24zM305 385q19 0 33 18v2q-7 2 -9 2q-16 0 -24 -19v-3zM325 911v56h9q0 -72 140 -84h177q66 0 66 -65v-103q0 -83 -103 -83h-158q-131 120 -131 279zM350 -11q17 -5 17 -6v-20q0 -67 12 -67h5q17 19 24 55q5 10 6 38h2q15 -2 15 -6q-3 -42 -3 -59v-10q0 -10 5 -20 q0 -6 -10 -18q-12 12 -12 25h-1q-11 -29 -28 -29h-3q-29 0 -29 93v24zM352 146v4q0 58 45 79l7 2h10q14 0 23 -23q-6 -6 -6 -9h-3q-9 15 -21 15q-17 0 -35 -26q-9 -19 -9 -34v-5q0 -29 24 -35q2 -1 8 -1q31 3 31 20v10q-4 3 -12 3h-10v17q28 0 33 -9q2 -7 2 -9 q-2 -25 -2 -29q0 -11 4 -26q-1 0 -8 -5h-1q-4 0 -6 22q-6 -8 -29 -12h-2q-38 0 -43 51zM353 1088v10q147 270 364 270v-242h-261q-54 0 -103 -38zM357 413q12 2 15 2v-1q0 -4 3 -19h1q10 43 28 43q19 0 28 -49q-1 0 -15 -4q-6 33 -13 33q-17 -9 -20 -75q1 -14 1 -15 q-10 -2 -15 -2q-13 69 -13 87zM409 986v37q3 19 19 19h289v-94q-35 19 -75 19h-214q-19 0 -19 19zM432 347v1q1 3 9 11h1q12 -15 28 -15q14 4 14 16q-4 15 -21 15q-28 0 -28 22v3q0 30 37 30q18 -5 18 -17v-1q0 -2 -10 -8h-1q-4 7 -13 7q-13 0 -16 -11q0 -5 29 -6 q20 -11 20 -34q0 -25 -20 -34l-8 -2h-5q-24 0 -34 23zM437 -63q0 48 34 58h4q14 0 29 -16v1q0 8 3 65q1 0 17 -4q-4 -38 -5 -92q0 -34 10 -69q-11 -10 -12 -10h-1q-3 0 -6 13h-2q0 -8 -21 -16q-33 0 -47 42q-3 12 -3 28zM446 132v15q0 33 26 46q5 2 15 2q20 -4 20 -20 q1 0 1 -2q0 -23 -35 -36q-5 -3 -15 -3v-1q0 -11 17 -17h1q10 0 23 16h3q0 -2 6 -9v-1q-14 -22 -29 -22h-6q-19 0 -27 32zM454 -64v-3q0 -34 30 -40h3q12 0 15 26v3q0 36 -21 48l-6 1h-2q-17 0 -19 -35zM457 150q23 0 39 22q-2 6 -11 6h-3q-19 0 -25 -28zM501 364q0 50 25 65 q2 1 11 3q20 0 33 -32q2 -9 2 -17v-3q0 -36 -35 -53q-5 -1 -9 -1q-27 4 -27 38zM513 172v16l11 1h2v18q0 27 3 27q8 -2 10 -2q-2 -29 -2 -42h2l12 2v-17q-1 0 -14 -2l4 -74l-2 -2h-8q-3 29 -5 75h-13zM516 365q2 -18 12 -18h3q24 7 26 35v3q-6 26 -20 26h-2q-13 0 -18 -32 q-1 -7 -1 -14zM534 22q2 14 12 14q9 0 11 -14v-1q0 -11 -8 -16h-7q-8 5 -8 17zM537 -10h12l6 -1q0 -3 -1 -8q1 -67 4 -109h-18l-1 8q-2 68 -2 110zM566 -76q0 51 30 69q10 2 11 2q25 0 41 -38q2 -11 2 -17v-9q0 -40 -39 -60q-4 -2 -13 -2q-27 0 -32 41v14zM567 538v10 q132 0 187 56h9q61 -56 187 -56v-10q-108 -37 -187 -37h-9q-80 0 -187 37zM575 409q7 2 14 2q3 -17 3 -20h1q7 41 21 41q19 0 36 -89q1 0 1 -7q-8 -7 -12 -7q-15 62 -23 80q-9 -13 -18 -70q-1 0 -5 -10h-7q-7 0 -9 57q-2 14 -2 23zM583 -82q0 -22 15 -25h4q15 0 29 29 q2 4 2 9v9q-7 31 -24 31h-2q-21 0 -24 -53zM592 154v17q6 0 10 2q-3 21 -3 52q3 29 17 29h2q13 0 15 -34v-3l-6 -1h-2q-3 21 -8 21q-6 0 -8 -19q1 -2 1 -4q0 -10 2 -39q5 3 9 3h3v-15l-11 -3q5 -57 5 -69h-11q-4 54 -4 65h-1q-5 -2 -10 -2zM634 193q2 0 11 -3q0 -74 14 -74 q19 12 28 66q1 5 1 11h1q3 0 10 -3q-3 -24 -3 -45v-12q0 -9 5 -19q-5 -7 -5 -11h-2q-7 4 -8 26h-2q-4 -15 -19 -29h-9q-20 0 -20 75v10zM652 348v8q0 30 32 35q11 -1 20 -6v1q-4 25 -17 25q-9 0 -18 -10h-3q-2 1 -8 11v2q12 14 23 14h11q27 -9 27 -45q-1 -21 -1 -35l2 -16 q-9 -8 -13 -8h-1l-2 11q-12 -8 -23 -8h-7q-22 3 -22 21zM654 -16h17q0 34 3 55h1l15 -5q-2 -28 -2 -45v-5q14 3 16 3l1 -14v-10q-16 -1 -16 -2q0 -23 5 -90q-13 -2 -17 -2v1q-5 75 -5 90h-18v24zM667 351q0 -3 10 -6q17 0 25 17q-8 7 -19 7q-16 -3 -16 -15v-3zM709 198v39h4 h6v-9q0 -61 3 -132h-11q-2 65 -2 102zM710 -40q0 33 3 33q12 -4 15 -4q-1 -23 -1 -34v-6q0 -33 12 -44h5q22 18 22 72v10h17v-1q8 -89 8 -103v-10q0 -44 -28 -60q-10 -4 -16 -4q-22 0 -29 20q-2 4 -2 9v9q0 15 4 15l14 -7l-1 -8v-4q0 -8 11 -10h4q20 0 25 33q1 4 1 12v20 l-1 13h-1q-10 -30 -29 -30h-2q-23 0 -30 50q-1 8 -1 20v9zM725 462v3v6h3l11 -1v-18q2 -70 2 -126l-7 -2h-6q-3 71 -3 138zM733 232v3q0 2 2 2h1h8v-30q0 -32 3 -111h-11q-3 66 -3 136zM782 411v11q0 25 8 44h4q0 -2 7 -12q-4 -18 -4 -30v-18q0 -44 15 -58h1q21 0 35 117h2 q12 -4 13 -4q-6 -58 -6 -86q0 -31 12 -31q2 -16 2 -20h-8q-13 0 -20 32h-1q-11 -28 -27 -28h-5q-20 0 -27 61q-1 4 -1 22zM789 154v17l11 1q-3 46 -3 52q0 30 19 30q12 0 16 -37l-8 -1h-2v1q0 15 -7 20q-8 -5 -8 -15q0 -8 3 -46v-1q5 3 10 3h1l1 -8v-7q-1 0 -12 -3l2 -3 q0 -12 4 -66h-11q0 6 -4 65q-9 -2 -12 -2zM800 -5h5q11 0 11 -3v-2q9 5 19 5q25 0 33 -44q0 -11 1 -14q-3 -52 -31 -64l-8 -1h-10l1 -8q0 -6 1 -40h-17q-5 132 -5 171zM800 725v317h383l9 -94v-18q0 -185 -131 -298h-167q-94 12 -94 93zM800 1126v242h10q132 0 279 -149 q56 -68 56 -93h-345zM816 -37q0 -3 3 -67l7 -1q22 0 26 42q-3 34 -17 34h-1q-10 0 -18 -8zM833 133v4q0 41 19 57q8 5 14 5q23 0 34 -38v-14q0 -34 -34 -50l-7 -1q-16 0 -24 20q-2 11 -2 17zM843 137q2 -23 15 -23h1q16 0 27 25q3 8 3 11q-6 31 -22 31h-4q-15 0 -20 -44z M871 347v1q8 11 10 11h1q12 -15 27 -15q14 4 14 16t-16 15q-25 0 -30 11q-2 11 -2 14q0 30 37 30q13 0 20 -18v-1q-11 -7 -14 -7q0 6 -11 7q-12 0 -17 -10v-1q0 -5 29 -6q19 -9 19 -36q0 -26 -24 -34h-8q-23 0 -35 23zM873 -81q0 54 30 74q11 2 12 2q23 0 39 -35 q4 -13 4 -24q0 -43 -38 -65q-8 -2 -14 -2q-22 0 -31 27q-2 12 -2 23zM890 -82v-5q0 -17 15 -20h2q16 0 30 26q4 8 4 18q-6 34 -28 34q-19 0 -23 -53zM905 176l8 2h2q3 -16 3 -33h1q9 54 24 54t34 -94h-1q-5 -4 -9 -4q-15 67 -24 79q-7 -7 -23 -79l-2 -1h-4q-6 0 -9 76z M941 373q0 40 30 54l12 1q24 -4 24 -23q0 -29 -42 -41h-7v-2q7 -14 16 -14q10 0 23 18h1q1 0 9 -12q0 -9 -21 -22q-4 -3 -9 -3h-7q-24 0 -29 44zM958 385h3q17 0 31 19q-6 3 -9 3h-3q-16 0 -22 -21v-1zM966 -113q1 17 11 17q9 0 12 -14v-5q-3 -13 -12 -13t-11 15zM979 172 l1 8v8l11 1h1v1q0 21 2 44q3 0 12 -2q-3 -13 -3 -29v-13h3l12 2v-17h-3l-12 -2l5 -74l-5 -2h-6q-3 62 -3 75h-15zM996 -84q0 34 19 64q12 12 18 12h8q6 0 15 -9q11 -12 11 -18q-11 -13 -12 -13q-11 15 -18 15h-2q-12 -5 -18 -28l-4 -21q0 -22 14 -24h3q11 0 34 16h1 q6 -20 6 -22q-25 -18 -47 -18q-23 0 -28 46zM1044 367v9q0 50 40 88q8 2 10 2h6q12 0 28 -28q12 -22 12 -44v-9q0 -37 -40 -58q-7 -3 -14 -3h-7q-30 0 -35 43zM1058 117v8q3 32 30 32q12 0 21 -8v3q0 25 -18 29h-3q-6 0 -17 -8h-1q-1 0 -6 7v2q10 13 19 13h11q16 0 24 -28 q2 -16 3 -18q-1 -6 -3 -26q2 -4 2 -23l-6 -4h-3l-3 12q-10 -11 -25 -11h-4q-21 3 -21 20zM1059 368q0 -21 25 -24q22 0 37 27q5 8 5 18v3q0 27 -26 53q-3 0 -3 2q-17 0 -35 -50q-3 -11 -3 -21v-8zM1068 122q3 -8 11 -8h6q14 0 22 18q-9 8 -17 8h-2q-20 -3 -20 -18zM1076 -76 q0 51 30 69q10 2 11 2q24 0 39 -35q4 -8 4 -19v-8q0 -43 -39 -62q-4 -2 -13 -2q-28 0 -32 41v14zM1092 -82q0 -25 17 -25h3q14 0 29 30q2 6 2 10v7q-8 31 -25 31h-1q-20 0 -25 -53zM1126 172v16l11 1h1l2 45q3 0 12 -2q-2 -18 -2 -34v-8h2l12 2v-8v-9q-1 0 -14 -2v-6 q0 -15 4 -68l-2 -2h-9l-4 75h-13zM1144 409q6 2 15 2q1 -19 1 -22h1q7 43 24 43q16 0 35 -96q-9 -7 -13 -7q-15 66 -24 80q-6 -12 -19 -74q-3 -6 -4 -6h-6q-7 0 -10 80zM1164 -23q13 6 17 6q2 -8 4 -31h2q9 43 24 43q17 0 27 -58h1q8 58 27 58h1q24 0 40 -118h-2 q-11 -5 -13 -5h-1q-19 98 -25 98q-10 -22 -17 -82q-3 -10 -10 -10q-8 0 -11 15q-13 76 -19 76q-16 -58 -16 -93q-10 -4 -17 -4v1zM1223 453q1 12 1 18h1l14 -1q-1 -9 -1 -13q0 -55 3 -131l-11 -2h-4q-2 58 -3 129zM1247 383v17q0 10 2 29q13 -2 14 -2q-1 -18 -1 -26v-9 q2 -35 13 -35h1q18 13 18 67h15v-3q7 -78 7 -88q0 -46 -30 -56h-5h-5q-18 0 -23 19q-1 5 -1 10q0 15 3 15h1q9 -6 12 -6l-1 -9q0 -8 9 -9h2q23 0 23 42q0 5 -1 21h-1q-8 -24 -26 -24h-1q-19 0 -25 47z" />
<glyph unicode="/" horiz-adv-x="980" d="M100 -98q1 8 3 17q47 175 270 718q224 546 308 834q19 61 89 61q16 0 36 -3q43 -9 66 -34q16 -18 17 -41v-13q-1 -7 -3 -15q-85 -288 -308 -834q-223 -543 -270 -718q-17 -62 -86 -62q-18 0 -38 5q-44 7 -67 33q-16 18 -17 40q-1 6 0 12z" />
<glyph unicode="0" horiz-adv-x="1543" d="M80 345q0 61 17 133q60 255 240 452q184 198 432 267q19 7 39 10q13 3 30 5q46 6 91 6q191 0 341 -99q193 -126 193 -353q0 -15 -1 -30q-17 -291 -275 -504q-229 -187 -541 -240q-72 -12 -135 -12q-180 0 -300 93q-131 99 -131 272zM343 351q0 -53 13 -96 q35 -108 150 -108q32 0 71 9q235 52 403 180q207 157 219 370q2 15 2 30q0 138 -78 228q-72 84 -188 84q-28 0 -58 -4q-170 -39 -312 -194q-131 -139 -189 -319q-33 -101 -33 -180z" />
<glyph unicode="1" horiz-adv-x="1008" d="M16 65q0 4 2 9q6 33 61 55q125 50 287 71q-26 114 -26 297q0 165 34 411q-40 -51 -62 -66q-35 -21 -75 -21q-47 0 -102 28q-42 23 -48 51v8q0 28 40 54q27 18 90 93q75 90 114 126q77 70 144 70q69 0 129 -70q42 -48 42 -162q0 -32 -3 -68q-4 -43 -18 -135 q-12 -78 -12 -109q-4 -137 -4 -237q0 -180 15 -248q132 11 216 24q18 3 34 3q80 0 116 -66q9 -16 9 -31t-9 -29q-20 -31 -80 -40q-42 -8 -354 -32q-210 -15 -345 -69q-30 -12 -58 -12q-56 0 -108 47q-29 22 -29 48z" />
<glyph unicode="2" horiz-adv-x="1286" d="M22 150q0 94 189 210q47 27 125 67q103 54 127 68q152 82 228 166q119 131 119 237q0 48 -23 90q-48 90 -121 90q-17 0 -36 -4q-95 -26 -122 -140q-9 -37 -54 -54q-28 -12 -60 -12q-15 0 -31 3q-53 6 -83 33q-27 24 -27 56q0 9 3 19q26 108 114 186q83 74 197 101 q64 15 121 15q176 0 284 -143q93 -120 93 -243q0 -112 -80 -228q-126 -180 -406 -325q0 -2 -167 -107q-69 -44 -115 -66q24 -13 94 -13q47 0 110 3q304 12 616 69q23 4 41 4q75 0 109 -64q9 -17 9 -32t-9 -28q-21 -32 -81 -44q-279 -51 -580 -70q-227 -14 -269 -14 q-174 5 -255 69q-60 47 -60 101z" />
<glyph unicode="3" horiz-adv-x="1360" d="M27 147v8q6 27 48 49q59 32 110 32q37 0 69 -18q142 -77 298 -77q38 0 75 5q206 24 339 166q110 119 110 206v13q-9 99 -107 126q-30 9 -187 17q-110 4 -179 40q-70 36 -70 95q0 22 10 49q20 47 96 126q75 78 96 129q8 18 8 32q0 64 -137 64q-120 0 -346 -49 q-24 -5 -44 -5q-72 0 -106 62q-9 16 -9 31q0 17 9 30q21 33 79 45q255 56 428 56q153 0 240 -44q159 -78 159 -177q0 -43 -30 -90q-72 -115 -158 -216q-15 -18 -15 -25q0 -5 6 -5q3 0 9 2q68 18 78 18h20q39 0 78 -5q235 -28 304 -190q27 -63 27 -126q0 -105 -75 -212 q-96 -135 -276 -232q-198 -107 -423 -107h-36q-235 9 -456 128q-42 22 -42 49z" />
<glyph unicode="4" horiz-adv-x="1353" d="M31 692q0 99 168 255q80 73 213 172q141 107 153 117q131 114 273 159q47 14 83 14q115 0 115 -150v-6q-3 -185 -76 -573q147 1 262 9h12q48 0 78 -21q30 -23 30 -57q0 -33 -30 -60q-34 -29 -90 -32q-136 -9 -294 -9q-36 -214 -36 -378q0 -24 2 -46v-3q0 -39 -38 -62 q-36 -21 -90 -21q-52 0 -90 21q-42 24 -43 65q-2 34 -2 69q0 169 30 363q-88 4 -123 7q-27 3 -109 5q-83 3 -129 7q-158 14 -222 65q-47 37 -47 90zM322 723q2 -4 122 -18q108 -12 246 -19q1 7 6 30q3 19 6 30q57 270 67 387q-6 -6 -22 -20l-21 -18q-251 -213 -320 -282 q-84 -81 -84 -90z" />
<glyph unicode="5" horiz-adv-x="1349" d="M41 146q0 4 2 9q6 30 48 51q54 28 99 28q42 0 76 -24q101 -67 233 -67q55 0 118 12q213 43 288 204q35 73 35 124q0 75 -75 101q-56 18 -261 48q-165 25 -251 78q-94 60 -94 153q0 42 18 88q43 117 171 236q130 121 381 121q25 0 52 -1q44 -3 133 -23q109 -10 181 -10 q26 0 45 1h18q44 0 72 -19q30 -23 30 -57q0 -35 -30 -60q-34 -29 -90 -33h-9q-60 0 -209 31q-84 11 -148 11q-108 0 -165 -29q-42 -21 -134 -133q-66 -81 -66 -120q0 -23 21 -32q65 -25 287 -58q183 -27 273 -92q111 -81 111 -208q0 -27 -5 -56q-27 -150 -159 -258 q-199 -163 -469 -189q-41 -3 -80 -3q-228 0 -406 120q-41 27 -41 56z" />
<glyph unicode="6" horiz-adv-x="1191" d="M80 462v4q0 263 188 527q192 267 447 348q25 7 51 7q61 0 118 -49q27 -26 27 -48v-8q-7 -31 -64 -49q-261 -83 -435 -420q169 84 325 84q24 0 48 -2q212 -15 308 -190q52 -96 52 -195q0 -110 -63 -224q-118 -211 -343 -255q-63 -12 -123 -12q-170 0 -318 96 q-215 140 -218 386zM332 483q0 -146 99 -243q83 -81 176 -81q61 0 126 34q154 80 154 249q0 12 -1 26q-11 178 -143 202q-19 3 -37 3q-102 0 -224 -85q-31 -23 -75 -23q-30 0 -66 11q-9 -48 -9 -93z" />
<glyph unicode="7" horiz-adv-x="1089" d="M30 1232q0 34 30 58q33 26 90 26h573q299 0 338 -173q6 -25 6 -55q0 -174 -192 -507q-21 -36 -161 -255q-99 -158 -145 -264q-27 -62 -114 -62q-23 0 -48 5q-51 7 -78 33q-18 18 -18 40q0 14 6 29q49 111 258 436q172 269 219 456q10 39 10 69q0 59 -42 74q-13 4 -174 4 h-438q-57 0 -90 27q-30 24 -30 59z" />
<glyph unicode="8" horiz-adv-x="1114" d="M80 1041q0 67 48 124q86 102 282 143q95 21 183 21q83 0 159 -18q207 -47 264 -168q18 -39 18 -83q0 -97 -93 -216q-31 -40 -94 -96q-72 -66 -96 -93q13 -12 55 -46q65 -56 99 -92q123 -133 123 -247q0 -33 -10 -66q-44 -128 -228 -185q-125 -39 -254 -39q-58 0 -117 8 q-204 28 -283 130q-45 57 -45 122q0 76 63 163q54 75 169 164q74 57 75 58q15 15 23 24l-5 6l2 -1q-27 21 -80 55q-148 99 -204 182q-54 81 -54 150zM340 1038q0 -3 3 -21q4 -15 6 -18q7 -15 15 -27q6 -11 12 -17q27 -34 66 -66l7 -7q17 -14 23 -18q22 -15 51 -35 q48 -33 54 -36q103 93 123 117q58 71 72 129q1 2 1 3v36q-3 8 -3 9q-1 3 -7 14q-8 10 -11 13l-3 3q-12 9 -21 14l-1 1h-2q-16 8 -33 12l-1 2l-3 1l1 -1q-31 6 -61 10h-50q-16 0 -31 -1h-9q-41 -6 -74 -14l-3 -1l-3 -2q-19 -6 -31 -10q-6 -3 -23 -11q-10 -4 -13 -6 q-12 -7 -21 -15l-5 -4q-6 -6 -13 -17q-5 -7 -6 -10q0 -2 -5 -14q-1 -10 -1 -13zM350 247q0 -12 2 -22v-3q3 -6 7 -15q5 -6 6 -9q3 -2 11 -9l9 -6q4 -3 13 -8q12 -4 17 -6q7 -3 21 -7q1 0 9 -2q27 -6 58 -9q8 -1 15 -1h29q19 0 34 1h2q36 5 63 11q7 1 9 1q1 2 3 2q19 6 31 10 q3 2 18 9q12 8 14 9q4 2 18 14l10 10q3 2 6 8q8 12 9 19q3 8 3 9v3q2 9 2 15q0 8 -2 12v9q0 2 -1 3q-5 18 -11 32q-7 16 -18 34q-1 2 -10 14q-6 10 -9 12q-32 42 -71 78q-16 15 -57 46q-10 -9 -66 -51q-16 -13 -25 -19q-6 -8 -17 -14q-21 -19 -30 -28q-40 -39 -64 -71 q-6 -6 -11 -13q-1 -2 -3 -5q-7 -15 -12 -25q-7 -17 -10 -27q-2 -6 -2 -11z" />
<glyph unicode="9" horiz-adv-x="1255" d="M80 791q0 114 81 225q137 186 408 267q123 36 224 36q124 0 214 -54q131 -78 131 -246q0 -77 -27 -173q57 -18 64 -90v-6q0 -43 -51 -180l2 3l-198 -510q-26 -63 -113 -63q-21 0 -46 5q-51 7 -78 33q-21 19 -21 43q0 14 6 27q22 59 85 215q56 135 86 216 q-234 -125 -402 -125q-192 0 -297 165q-68 108 -68 212zM343 794q0 -50 21 -99q27 -60 79 -81q26 -11 56 -11q37 0 82 18q117 48 243 135q15 9 32 20q-17 19 -17 42q0 10 5 22q39 110 39 186q0 26 -5 47q-16 82 -93 82q-33 0 -75 -13q-225 -75 -309 -188q-58 -78 -58 -160z " />
<glyph unicode=":" horiz-adv-x="496" d="M80 107q0 16 7 34l13 26l12 26q38 81 133 81q26 0 57 -6q47 -9 85 -42q29 -27 29 -58q0 -15 -8 -32l-23 -53q-37 -83 -135 -83q-26 0 -54 6q-50 9 -88 44q-28 26 -28 57zM80 903q0 16 7 34l13 26l12 26q38 81 133 81q26 0 57 -6q47 -9 85 -42q29 -27 29 -58q0 -15 -8 -32 l-23 -53q-37 -83 -135 -83q-26 0 -54 6q-50 9 -88 44q-28 26 -28 57z" />
<glyph unicode=";" horiz-adv-x="496" d="M10 -264q0 26 23 48q29 29 69 87.5t43 215.5q0 41 -6 86q-2 6 -2 12q0 31 30 51q32 21 82 22h5q121 0 135 -85q7 -47 7 -90q0 -150 -68 -263q-92 -145 -160 -166q-20 -2 -37 -2q-92 0 -116 60q-5 12 -5 24zM80 903q0 16 7 34l13 26l12 26q38 81 133 81q26 0 57 -6 q47 -9 85 -42q29 -27 29 -58q0 -15 -8 -32l-23 -53q-37 -83 -135 -83q-26 0 -54 6q-50 9 -88 44q-28 26 -28 57z" />
<glyph unicode="&#x3c;" horiz-adv-x="1158" d="M80 596q0 30 12 57q39 90 233 225q325 225 504 379q36 32 93 32q39 0 87 -15t63 -41q6 -10 6 -19q0 -21 -24 -42q-213 -186 -438 -341q-227 -156 -254 -193q-12 -15 -12 -33q0 -86 243 -248q95 -63 227 -138l141 -79l-2 1q42 -25 42 -54v-7q-6 -29 -49 -50 q-56 -30 -104 -30q-39 0 -73 21l-177 98q-153 84 -254 153q-264 183 -264 324z" />
<glyph unicode="=" horiz-adv-x="1176" d="M80 876q0 15 9 29q20 31 80 42q267 46 498 46q171 0 324 -25q60 -11 79 -41q9 -13 9 -30q0 -15 -9 -31q-34 -65 -112 -65q-18 0 -38 3q-117 20 -253 20q-195 0 -428 -41q-21 -4 -39 -4q-76 0 -111 66q-9 16 -9 31zM100 401q0 15 9 28q21 30 81 38q148 21 355 21 q192 0 432 -18q56 -5 89 -33q30 -26 30 -60q0 -35 -29 -57q-28 -20 -72 -20h-18q-253 18 -438 18q-169 0 -280 -15q-17 -3 -32 -3q-81 0 -118 69q-9 17 -9 32z" />
<glyph unicode="&#x3e;" horiz-adv-x="1158" d="M80 75q0 21 24 42q213 186 438 341q227 156 254 193q12 15 12 33q0 86 -243 248q-95 63 -227 138l-141 79l2 -1q-42 25 -42 54v7q6 29 49 50q56 30 104 30q39 0 73 -21l177 -98q153 -84 254 -153q264 -183 264 -324q0 -30 -12 -57q-39 -90 -233 -225q-325 -225 -504 -379 q-36 -32 -93 -32q-39 0 -87 15t-63 41q-6 10 -6 19z" />
<glyph unicode="?" horiz-adv-x="983" d="M38 1165q0 16 8 35q67 152 200 248q72 50 150 73q62 19 128 19q13 0 25 -1q134 -6 240 -73q111 -70 144 -182l5 -17q11 -50 11 -96q0 -86 -38 -159q-39 -77 -150 -180q-128 -120 -166 -173q-73 -102 -73 -161v-15q0 -37 -39 -67q-25 -19 -59 -28q-12 -4 -27 -7 q-15 -2 -28 -2q-35 0 -60 13q-31 14 -39 43q-3 10 -3 21v16q0 208 287 422q148 110 148 225q0 28 -8 55q-3 10 -7 20q-61 155 -187 155h-10q-25 -1 -49 -8q-98 -29 -155 -160q-21 -50 -80 -67q-30 -9 -70 -9h-8q-50 1 -75 24q-9 9 -13 21q-2 7 -2 15zM212 107q0 16 7 34 l13 26l12 26q38 81 133 81q26 0 57 -6q47 -9 85 -42q29 -27 29 -58q0 -15 -8 -32l-23 -53q-37 -83 -135 -83q-26 0 -54 6q-50 9 -88 44q-28 26 -28 57z" />
<glyph unicode="@" horiz-adv-x="1774" d="M80 469q0 -42 6 -84q39 -260 314 -390q198 -95 435 -95q93 0 193 15q354 53 570 266q12 13 35 40q19 23 19 45q0 14 -7 26q-18 28 -66 43q-42 14 -77 14q-61 0 -96 -42q-138 -168 -381 -215q-81 -15 -162 -15q-141 0 -283 45q-209 66 -236 260q-4 30 -4 63q0 133 75 304 q157 368 511 584q93 57 174 57q114 0 201 -113q125 -160 129 -412v-9q0 -71 -24 -158q-33 -121 -93 -150q6 68 6 128q0 417 -282 417h-10q-150 -5 -279 -107q-119 -93 -188 -240q-33 -70 -33 -133q0 -74 47 -137q81 -106 250 -124q45 -5 107 -5q61 0 141 5q121 7 193 7 q32 0 53 -1h15q132 0 228 123q84 105 115 256q18 81 18 161q0 196 -106 382q-161 284 -447 284q-534 0 -929 -671q-132 -226 -132 -424zM788 605q0 39 23 96q78 189 213 222q-8 -1 -8 -12q0 -10 8 -28q25 -56 28 -72q11 -53 11 -123q0 -66 -9 -147q-89 -20 -122 -23 q-15 -1 -27 -1q-117 0 -117 88z" />
<glyph unicode="A" d="M10 91q0 21 15 45l399 799q27 42 78 136q56 107 84 152q107 180 212 244q46 27 91 27q47 0 83 -27q90 -117 244.5 -502.5t431.5 -863.5q9 -15 9 -30q0 -18 -15 -33q-25 -26 -76 -33q-29 -5 -53 -5q-84 0 -117 56q-187 324 -291 534q-22 -2 -249 -8q-67 -1 -187 -1 q-95 -2 -149 -2l-268 -528q-32 -47 -93 -47q-32 0 -72 12q-48 14 -68 44q-9 15 -9 31zM598 750h155l129 -1h45q64 0 112 3q-102 223 -183 466q-130 -199 -172 -286.5t-86 -181.5z" />
<glyph unicode="B" horiz-adv-x="1334" d="M80 89v7l87 810q32 296 48 344q54 165 240 229q134 48 273 48q63 0 128 -10q234 -36 337 -197q47 -72 47 -141q0 -90 -81 -175q-92 -99 -329 -215q425 -76 425 -318q0 -48 -17 -102q-112 -369 -771 -369q-118 0 -253 12h-15q-39 0 -69 14q-20 7 -30 19l-2 2l-4 4 q-14 18 -14 38zM350 171q48 -1 93 -1q186 0 315 34q230 63 230 227v9q-5 153 -179 193q-57 12 -153 17q-135 6 -139 6q-80 7 -92 60q-1 6 -4 15q-3 12 -3 21q0 40 37 63q2 0 155 75q139 69 223 127q149 102 149 182q0 66 -96 117q-75 39 -168 39q-42 0 -87 -8 q-158 -27 -170 -138q-19 -172 -55 -519q-38 -346 -56 -519z" />
<glyph unicode="C" horiz-adv-x="1429" d="M80 428q0 123 44 259q174 536 625 779q192 103 351 103q95 0 179 -37q117 -53 135 -174q3 -21 3 -44q0 -84 -45 -180q-29 -61 -114 -61q-23 0 -48 4q-53 9 -80 35q-18 18 -18 39q0 13 8 28q16 36 16 66q0 51 -43 90q-39 35 -83 35q-36 0 -76 -24q-84 -50 -123 -80 q-132 -103 -219 -216q-203 -262 -239 -501q-12 -76 -12 -141q0 -169 84 -244q60 -56 158 -56q61 0 136 23q98 28 288 127q32 17 68 17q51 0 112 -33q42 -23 48 -48v-8q0 -27 -43 -48q-384 -198 -644 -198q-168 0 -283 84q-147 108 -177 303q-8 50 -8 101z" />
<glyph unicode="D" horiz-adv-x="1526" d="M80 89v13q0 234 53 626q63 471 73 639q2 43 47 67q36 18 82 18h14q132 11 243 11q150 0 259 -20q281 -48 437 -226q159 -183 159 -407q0 -60 -12 -123q-69 -376 -473 -558q-282 -129 -627 -129q-61 0 -124 5q-131 7 -131 84zM343 171q297 6 505 114q255 129 320 384 q21 83 21 158q0 157 -99 273q-171 195 -540 195q-42 0 -89 -3q-12 -141 -67 -561q-47 -350 -51 -560z" />
<glyph unicode="E" horiz-adv-x="1370" d="M80 98v8q5 60 83 625q31 324 63 647q7 78 130 85l815 56h12q48 0 78 -21t30 -57q-2 -33 -32 -60q-33 -29 -88 -32q-116 -9 -347 -24q-229 -15 -345 -24q-7 -78 -22 -237q-15 -157 -24 -237q96 8 295 23q195 15 296 22h12q49 0 79 -21q29 -21 29 -55q0 -35 -30 -60 q-33 -30 -90 -33q-101 -9 -305 -24t-306 -23q-49 -349 -66 -493q63 -12 147 -12q95 0 215 15q322 37 357 39h6q52 0 85 -24q29 -21 29 -54v-3q0 -35 -30 -60q-33 -27 -90 -29q-84 -3 -230 -18q-174 -19 -234 -22q-70 -5 -135 -5q-189 0 -322 42q-65 23 -65 66z" />
<glyph unicode="F" horiz-adv-x="1168" d="M80 86q0 -2 65 603l81 702q9 78 130 85q204 15 683 51h12q48 0 78 -21q29 -19 29 -54v-3q0 -33 -30 -60q-33 -28 -89 -31q-102 -8 -276 -23q-207 -13 -285 -21q-39 -336 -62 -531q38 2 254 11q132 7 243 16h18q44 0 72 -19q30 -21 30 -56q-1 -34 -31 -61q-33 -29 -89 -33 q-112 -11 -254 -17q-205 -9 -262 -12q-54 -423 -56 -526q0 -41 -42 -65q-36 -21 -90 -21q-52 0 -88 21q-41 24 -41 65z" />
<glyph unicode="G" horiz-adv-x="1624" d="M80 446q0 169 77 349q99 234 297 423q199 193 436 278q152 53 296 53q97 0 190 -24q59 -15 78 -49q9 -15 9 -29q0 -16 -9 -32q-16 -30 -55 -45q-26 -11 -51 -11q-20 0 -41 6q-57 15 -114 15q-169 0 -348 -127q-210 -151 -357 -414q-135 -245 -135 -436v-21 q8 -217 206 -236q21 -1 42 -1q171 0 370 297q311 449 392 481q57 24 96 24q5 1 10 1q44 0 68 -40q21 -43 21 -135q0 -65 -73 -319t-109 -379q-27 -75 -30 -110q-3 -41 -46 -65q-38 -20 -82 -20q-52 2 -81 22q-22 22 -22 57v6q2 20 179 571q-110 -198 -222 -352 q-128 -150 -275 -181q-100 -20 -193 -20q-128 0 -240 37q-236 82 -273 303q-11 61 -11 123z" />
<glyph unicode="H" horiz-adv-x="1582" d="M80 78v8q9 100 27 303q18 201 27 301l63 746q3 42 47 64q34 21 85 21h6q53 0 87 -21q36 -22 36 -58v-6l-54 -651q524 31 764 46q24 197 73 590q6 40 50 64q39 21 91 21q53 -1 87 -22q33 -21 33 -56v-7l-84 -668q-21 -222 -61 -667q-5 -41 -48 -65q-38 -21 -92 -21 q-52 0 -87 23q-34 21 -34 55v8q7 91 27 288q16 186 27 286q-269 -16 -761 -46l-48 -528q-4 -41 -48 -65q-37 -21 -91 -21q-53 0 -87 23q-35 21 -35 55z" />
<glyph unicode="I" horiz-adv-x="568" d="M80 78v8q104 1063 146 1272q18 84 144 84h4q53 -2 84 -23q30 -19 30 -49q0 -6 -1 -12q-42 -209 -146 -1272q-4 -41 -48 -65q-37 -21 -91 -21q-53 0 -87 23q-35 21 -35 55z" />
<glyph unicode="J" horiz-adv-x="1031" d="M10 326q0 12 6 22q15 26 65 42q46 14 82 14q59 0 96 -35q173 -169 257 -198q10 -4 18 -4q3 0 4 1q6 5 21 35q62 129 75 400q39 746 60 819q12 38 59 54q30 11 64 11q14 0 29 -2q52 -7 81 -34q24 -21 24 -50q0 -12 -5 -24q-46 -159 -46 -495v-142q0 -338 -60 -512 q-80 -228 -272 -228q-51 0 -108 15q-208 56 -427 269q-23 21 -23 42z" />
<glyph unicode="K" horiz-adv-x="1416" d="M80 105q0 12 5 24q90 301 162 1291q3 42 45 66q39 21 91 21q53 -1 89 -22q36 -23 36 -59v-6q-6 -72 -15 -229q-11 -150 -17 -230l15 9q9 6 15 9q390 236 518 443q34 55 120 55q24 0 51 -4q51 -9 75 -33q15 -15 15 -33q0 -14 -9 -30q-104 -168 -297 -314 q-63 -48 -177 -123q-134 -90 -182 -124q-22 -17 -22 -42q0 -62 135 -177q60 -51 154 -120q101 -72 107 -78q210 -171 321 -294q21 -24 21 -45q0 -12 -6 -23q-17 -28 -66 -43q-44 -14 -80 -14q-60 0 -94 39q-119 129 -534 462q-14 11 -53 38q-43 31 -66 48 q-37 -269 -102 -483q-10 -36 -57 -53q-28 -12 -61 -12q-15 0 -32 3q-52 8 -81 35q-24 21 -24 48z" />
<glyph unicode="L" horiz-adv-x="1045" d="M80 305q0 105 23 261q90 612 118 859q5 42 48 65q39 21 92 21q52 0 87 -23q34 -19 34 -55v-8q-6 -54 -94 -570q-53 -306 -53 -513q0 -31 2 -60q6 -115 168 -115h21q57 1 153 19q105 20 127 21q11 2 21 2q89 0 129 -74q9 -16 9 -31q0 -14 -9 -27q-19 -27 -81 -33 q2 0 -184 -24q-141 -20 -236 -20h-6q-289 0 -349 156q-20 53 -20 149z" />
<glyph unicode="M" horiz-adv-x="1816" d="M3 92l1 6q56 432 114 702q69 324 70 327v-2q53 203 137 295q85 94 163 94q114 0 211 -203q51 -107 105 -289q62 -213 62 -216q8 -25 26 -25q33 0 98 79q25 29 121 169q224 327 278 375q118 100 210 100q63 0 114 -49q77 -78 77 -255q0 -21 -1 -43q-5 -65 -20 -173 q-18 -127 -22 -156q-23 -238 -45 -435q-17 -149 -17 -251q0 -32 2 -60l-1 -8q-2 -37 -36 -59q-37 -23 -89 -25q-54 0 -92 23q-42 25 -43 69q-2 31 -2 65q0 100 16 232q20 177 37 356q50 508 50 509q-53 -64 -140 -206q-92 -151 -103 -168q-162 -214 -301 -311 q-60 -41 -120 -41q-56 0 -112 38q-100 68 -139 202q-8 28 -54 219q-32 135 -66 214q-1 2 -3 4q-1 3 -3 4q-45 -132 -72 -238q-85 -371 -149 -863q-6 -44 -51 -69q-39 -23 -91 -23q-54 0 -88 25q-34 22 -32 61z" />
<glyph unicode="N" horiz-adv-x="1624" d="M80 87q3 698 18 938q17 285 56 366q45 94 126 94q37 0 81 -19q115 -50 187 -167q540 -873 575 -915q62 -79 64 -79l-1 3q10 -17 10 -39q0 -12 -3 -27q26 87 35 157q22 183 33 386q4 90 10 307q6 198 12 309q3 42 45 65q38 22 92 22q52 -1 88 -22q36 -23 36 -59v-6 q-6 -109 -13 -342q-6 -225 -14 -343q-1 -17 -6 -147q-3 -104 -10 -173q-23 -208 -101 -295q-67 -75 -150 -75q-123 0 -280 171q-101 108 -314 444q-93 145 -271 462q-6 12 -18 34q-8 -88 -11 -162q-12 -286 -15 -888q0 -40 -42 -64q-36 -23 -90 -23q-52 0 -88 23 q-41 24 -41 64z" />
<glyph unicode="O" horiz-adv-x="1583" d="M20 494q0 75 14 158q49 297 223 531q186 249 456 337q20 9 41 14q15 3 31 4q86 15 165 15q228 0 396 -120q207 -147 207 -409q0 -51 -7 -107q-53 -370 -324 -637q-270 -269 -642 -314q-45 -6 -87 -6q-245 0 -372 186q-101 146 -101 348zM280 482q0 -79 15 -151 q43 -201 202 -201q27 0 59 6q268 52 474 258q210 210 249 477q9 63 9 118q0 176 -86 281q-91 112 -256 112q-57 0 -123 -13q-189 -51 -335 -258q-124 -176 -178 -395q-30 -123 -30 -234z" />
<glyph unicode="P" horiz-adv-x="1399" d="M80 67v9q14 123 26 390q10 256 27 391q48 392 139 494q128 141 392 184q93 15 178 15q141 0 261 -42q231 -79 266 -277q6 -32 6 -62q0 -163 -162 -301q-318 -272 -860 -299q-3 -57 -4 -280q-2 -150 -8 -213q-4 -42 -48 -65q-36 -21 -85 -21h-6q-54 0 -89 21 q-33 21 -33 56zM361 737q450 24 627 216q88 96 121 183q17 44 17 80q0 73 -72 112q-74 41 -197 41q-84 0 -192 -20q-261 -45 -304 -612z" />
<glyph unicode="Q" horiz-adv-x="1693" d="M80 493q0 77 14 159q49 297 223 531q186 249 456 338q20 9 41 13q13 3 31 5q86 15 164 15q228 0 396 -120q208 -147 208 -410q0 -51 -7 -106q-69 -480 -473 -761q42 -33 83 -33q12 0 24 3q19 6 39 6q25 0 52 -9q54 -18 69 -55q6 -15 6 -29q0 -51 -96 -76 q-54 -14 -105 -14q-139 0 -265 99q-149 -63 -300 -82q-45 -6 -87 -6q-245 0 -374 186q-99 145 -99 346zM340 484q0 -79 15 -153q42 -201 202 -201q27 0 59 6q94 18 187 60q-36 54 -61 110q-6 15 -6 28q0 23 18 41q27 25 78 33q25 4 48 4q87 0 114 -61q4 -11 13 -29 q284 227 330 549q9 65 9 122q0 172 -85 277q-90 113 -255 113q-57 0 -123 -14q-189 -51 -336 -258q-123 -175 -177 -394q-30 -123 -30 -233z" />
<glyph unicode="R" horiz-adv-x="1392" d="M80 85q2 126 107 932q28 213 78 303q70 126 243 185q102 34 210 34q130 0 267 -49q274 -101 319 -330q8 -35 8 -69q0 -69 -30 -135q-44 -99 -137 -153q-70 -42 -285 -102q-132 -36 -195 -36q-55 0 -60 27q21 -143 267 -330q0 -1 374 -248q40 -27 40 -55q0 -5 -1 -9 q-6 -30 -48 -51q-54 -29 -99 -29q-42 0 -77 24q-550 366 -679 608q-38 -270 -41 -517q0 -41 -40 -65q-35 -21 -84 -21h-6q-54 0 -90 21q-41 24 -41 65zM413 804q30 18 72 30q48 14 144 17q132 6 162 9q195 21 243 145q17 42 17 84q0 62 -35 122q-55 97 -165 130 q-73 24 -133 24q-150 0 -216 -144q-24 -51 -89 -417z" />
<glyph unicode="S" horiz-adv-x="1516" d="M20 160v8q0 27 27 52q50 42 101 42q31 0 64 -15q294 -138 512 -138q124 0 223 45t155 120q40 56 40 110q0 37 -19 75q-56 105 -185 166q-64 30 -250 84q-165 48 -245 96q-120 75 -163 204q-14 38 -14 75q0 134 168 260q168 129 363 172q131 30 257 30q85 0 169 -13 q248 -41 248 -206q0 -25 -6 -52q-17 -84 -143 -84h-4q-53 1 -86 22q-30 20 -30 50q0 6 2 12q3 13 3 27q0 57 -65 75q-24 6 -54 6q-55 0 -133 -20q-263 -63 -348 -157q-69 -75 -69 -140q0 -76 94 -138q69 -45 336 -132q432 -141 432 -388q0 -12 -1 -24q-32 -402 -548 -431 q-45 -3 -90 -3q-361 0 -681 150q-54 26 -60 60z" />
<glyph unicode="T" horiz-adv-x="1478" d="M40 1339v3q0 35 30 60q33 29 90 30q141 8 543 44q23 4 48 4h12q366 33 573 36q57 0 92 -25q30 -24 30 -59q-2 -34 -32 -58q-33 -27 -90 -27q-183 -3 -463 -27q-11 -107 -44 -284q-42 -305 -51 -361q-27 -172 -27 -312q0 -144 29 -252q3 -12 3 -22q0 -29 -24 -51 q-30 -27 -83 -35q-16 -3 -31 -3q-33 0 -62 12q-45 17 -55 54q-32 123 -32 282q0 135 23 296q10 75 48 365q31 183 42 290q-308 -29 -449 -36h-12q-48 0 -79 22q-29 21 -29 54z" />
<glyph unicode="U" horiz-adv-x="1352" d="M80 797q0 258 63 516q15 84 141 84h5q52 0 85 -23q32 -18 32 -49q0 -6 -2 -12q-67 -273 -67 -513q0 -208 48 -369q30 -106 78 -190q63 -113 124 -113q6 0 12 2q185 36 311 396q102 272 102 585q0 103 -11 217v6q0 36 36 58q36 21 89 53q54 0 91 -51q42 -24 45 -66 q11 -117 11 -226q0 -271 -78 -540q-155 -572 -578 -600q-21 -2 -40 -2q-408 0 -482 588q-15 128 -15 249z" />
<glyph unicode="V" horiz-adv-x="1618" d="M20 1349q0 30 30 49q33 21 86 21h9q121 0 139 -82q48 -239 188 -627q154 -431 195 -486q93 84 325 490q284 495 365 614q31 45 93 45q31 0 72 -12q49 -14 67 -44q9 -15 9 -30q0 -21 -16 -45q-99 -145 -264 -441q-170 -303 -261 -441q-129 -190 -204 -262 q-104 -98 -197 -98q-49 0 -94 27q-114 68 -203 263q-18 39 -118 318q-161 445 -219 729q-2 6 -2 12z" />
<glyph unicode="W" horiz-adv-x="2181" d="M80 1298q0 31 32 52q34 21 87 23h4q126 0 140 -86q110 -837 201 -1024l63 87q57 82 114 168q130 231 258 351q55 54 129 75q37 10 73 10q39 0 75 -13q108 -41 174 -189q0 -3 86 -254q66 -195 87 -237q0 -1 9 -10q30 52 54 118q174 464 220 932q5 42 47 64q39 21 93 21 q52 0 87 -21q34 -21 34 -57v-7q-78 -782 -318 -1152q-96 -149 -196 -149q-87 0 -177 108q-123 146 -221 431q-70 190 -88 190q-2 0 -3 -1q-113 -125 -271 -383.5t-228 -303.5q-48 -32 -104 -32q-24 0 -51 6q-81 18 -132 84q-136 173 -195 602q-23 118 -45 309 q-29 225 -36 277q-2 6 -2 11z" />
<glyph unicode="X" horiz-adv-x="1237" d="M10 49q1 6 3 12q2 8 7 17l425 556q28 39 75 102q-319 486 -376 592q-3 8 -5 15t-3 13q-3 23 14 41q25 25 78 34q24 3 45 3q87 0 119 -61q80 -144 252 -479q199 364 286 508q35 61 122 61q21 0 45 -3q52 -9 76 -34q16 -18 12 -41q-1 -6 -3 -13q-3 -7 -6 -15 q-109 -177 -417 -621q45 -63 71 -102l388 -556q4 -9 6 -17q2 -6 3 -12q2 -22 -16 -40q-24 -26 -77 -33q-25 -5 -48 -5q-85 0 -117 62l-335 521l-368 -521q-34 -62 -119 -62q-23 0 -48 5q-52 7 -76 33q-17 18 -13 40z" />
<glyph unicode="Y" horiz-adv-x="1465" d="M10 1400q0 12 6 22q15 29 65 44q45 13 81 13q58 0 94 -36q76 -88 237 -264q161 -177 235 -264q34 27 171 148.5t299 378.5q33 45 94 45q32 0 72 -12q50 -15 68 -44q9 -13 9 -30q0 -21 -18 -45q-56 -111 -252 -343q-119 -131 -223 -222q-7 -8 -25 -26q-18 -21 -29 -28 q-7 -12 -25 -17q-15 -70 -40 -245t-52 -389q-4 -41 -48 -65q-39 -21 -93 -21q-52 2 -87 23q-33 21 -33 55v8q14 108 41 322q27 216 40 324l-566 624q-21 24 -21 44z" />
<glyph unicode="Z" horiz-adv-x="1235" d="M10 192q0 106 111 248q33 41 288 289q314 305 411 460q36 52 66 116q-7 0 -31 3h-593q-57 0 -91 29q-30 23 -30 61q0 36 30 62q34 29 91 29q15 0 75 3q80 6 125 7q94 5 174 5q81 0 147 -5q376 -23 376 -162q0 -20 -6 -39q-66 -212 -294 -446q-60 -62 -196 -191 q-128 -118 -188 -182q-159 -170 -187 -238q-8 -19 -8 -33q0 -38 59 -38q25 0 75 7q54 8 69 8q235 11 396 11q133 0 216 -7q55 -7 88 -38q30 -29 32 -65q0 -38 -30 -60q-29 -21 -72 -21h-18l-699 -5q-144 0 -183 5q-117 14 -165 74q-38 50 -38 113z" />
<glyph unicode="[" horiz-adv-x="888" d="M80 -117q5 118 14 198q9 240 13 359q11 273 32 849q7 199 196 243q45 10 167 10q78 0 186 -4q57 -2 90 -30q30 -26 30 -59v-3q0 -33 -29 -55q-33 -23 -85 -23h-6q-32 2 -60 2q-122 0 -165 -27q-62 -39 -68 -182q-3 -96 -10 -286q-8 -191 -11 -287v3q-1 0 -16 -196 q-17 -195 -18 -341v-19q0 -250 115 -250q11 0 21 3q26 8 50 8q63 0 120 -51q28 -24 28 -47q0 -4 -1 -9q-8 -30 -65 -46q-147 -44 -255 -44q-55 0 -102 12q-171 45 -171 251v21z" />
<glyph unicode="\" horiz-adv-x="980" d="M62 1441q-1 7 0 13q0 23 16 41q23 25 67 34q19 3 36 3q70 0 88 -61q85 -288 309 -834q223 -543 275 -717q3 -9 4 -17v-12q-1 -22 -17 -40q-23 -26 -67 -33q-20 -5 -39 -5q-68 0 -86 62q-52 174 -275 717q-223 546 -308 834q-2 8 -3 15z" />
<glyph unicode="]" horiz-adv-x="888" d="M80 -305q0 33 29 55q33 23 85 23h6q32 -2 60 -2q122 0 165 27q62 39 68 182q3 96 10 286q8 191 11 287v-3q1 0 16 196q17 195 18 341v19q0 250 -115 250q-11 0 -21 -3q-26 -8 -50 -8q-63 0 -120 51q-28 24 -28 47q0 4 1 9q8 30 65 46q147 44 255 44q55 0 102 -12 q171 -45 171 -251v-21q-5 -118 -14 -198q-9 -240 -13 -359q-11 -273 -32 -849q-7 -199 -196 -243q-45 -10 -167 -10q-78 0 -186 4q-57 2 -90 30q-30 26 -30 59v3z" />
<glyph unicode="^" horiz-adv-x="1320" d="M80 892q0 23 18 45q26 33 114 179q87 144 147 220q146 186 284 186q49 0 99 -25q148 -77 297 -260q141 -175 196 -340q5 -14 5 -26q0 -27 -23 -48q-28 -25 -79 -33q-18 -3 -35 -3q-31 0 -60 11q-48 16 -60 52q-88 267 -330 462q-81 -72 -174 -222q-126 -201 -154 -238 q-33 -44 -96 -44q-33 0 -74 12q-49 15 -66 44q-9 13 -9 28z" />
<glyph unicode="_" horiz-adv-x="1183" d="M-160 -115q0 34 30 58q33 27 90 29q80 1 450 12q135 -12 192 -12h20q49 3 94 3q156 7 273 7q205 0 290 -22q57 -20 64 -51v-8q0 -22 -27 -48q-55 -49 -117 -49q-25 0 -52 9h-458q-61 0 -133 -8q-596 -2 -596 -3h-6q-52 0 -84 24q-30 24 -30 59z" />
<glyph unicode="`" horiz-adv-x="752" d="M136 1843q0 5 2 11q7 31 49 52q50 26 92 26q43 0 79 -29q56 -45 111 -95q111 -91 166 -136q38 -30 38 -60q0 -5 -2 -11q-7 -31 -49 -52q-50 -26 -92 -26q-43 0 -79 29q-173 141 -277 231q-38 30 -38 60z" />
<glyph unicode="a" horiz-adv-x="975" d="M30 266q0 37 7 80q29 180 138 327q122 164 281 248q101 54 190 54q87 0 161 -51q61 -41 87 -143q16 -60 16 -117q0 -27 -4 -54q-7 -43 -28 -133q-20 -82 -24 -125q-2 -16 -2 -31q0 -117 88 -205q19 -19 19 -37q0 -10 -5 -19q-14 -23 -56 -36q-39 -12 -71 -12 q-51 0 -82 31q-52 52 -89 123q-176 -150 -342 -150q-78 0 -154 33q-130 57 -130 217zM260 292q0 -113 65 -113q35 0 89 33q132 81 212 210q58 136 58 238q0 29 -5 55q-15 85 -35 98q-6 4 -14 4q-27 0 -81 -38q-120 -84 -199 -205q-87 -135 -90 -269v-13z" />
<glyph unicode="b" horiz-adv-x="978" d="M31 280v24q0 188 43 480q45 311 86 491q12 51 29 115q13 54 14 59q7 35 46 55q32 17 75 17h5q45 0 74 -19q26 -17 26 -43q0 -5 -1 -10q-86 -306 -140 -635q166 162 298 167h17q133 0 247 -73q116 -75 116 -201v-10q-5 -113 -98 -255q-170 -260 -389 -378 q-128 -70 -233 -70q-63 0 -117 25q-95 68 -98 261zM236 372q0 -37 4 -77q17 -118 78 -118q22 0 49 15q133 85 199 168q156 195 156 322q0 14 -2 27q-13 97 -79 121q-20 7 -42 7q-36 0 -78 -19q-46 -21 -119 -81q-106 -90 -140 -197q-26 -76 -26 -168z" />
<glyph unicode="c" horiz-adv-x="898" d="M50 325q0 84 30 175q52 159 149 290q117 158 252 200q58 18 107 18q66 0 117 -32q89 -57 106 -196v-7q0 -29 -29 -48q-29 -18 -75 -19q-46 0 -79 18q-38 20 -42 56l-12 47q-1 5 -1 9q0 14 9 21q-25 -13 -35 -21q-59 -46 -104 -103q-122 -157 -154 -301q-17 -72 -17 -127 q0 -91 46 -133q32 -29 77 -29q103 0 278 153q31 27 80 27q33 0 75 -13t55 -36q5 -8 5 -16q0 -18 -21 -36q-154 -135 -310 -190q-93 -33 -177 -33q-93 0 -176 41q-119 59 -146 202q-8 41 -8 83z" />
<glyph unicode="d" horiz-adv-x="1176" d="M56 315q0 28 3 57q30 202 141 330q191 222 465 222q54 0 111 -9q12 41 79 268q48 162 79 267q9 32 49 46q25 9 54 9q13 0 27 -2q44 -6 69 -29q20 -19 20 -43q0 -10 -3 -20q-29 -100 -88 -300q-59 -201 -88 -301q-56 -285 -56 -457q0 -86 14 -144q43 11 125 45 q26 11 55 11q13 0 26 -2q47 -6 73 -35q15 -17 15 -35q0 -12 -6 -24q-15 -26 -49 -41q-136 -56 -219 -69q-32 -5 -60 -5q-100 0 -149 63q-6 8 -15 25q-164 -142 -334 -142q-109 0 -221 59q-117 82 -117 256zM285 328q0 -115 43 -178q26 -37 63 -37q70 0 181 133 q76 82 125 186q0 8 2 13q7 54 22 163q15 108 22 163q-30 4 -58 4q-140 0 -255 -105q-134 -123 -144 -304q-1 -20 -1 -38z" />
<glyph unicode="e" horiz-adv-x="851" d="M41 325q0 52 10 112q39 225 161 379q148 186 368 196h12q68 0 131 -42q75 -49 75 -121v-2q0 -165 -179 -302q-156 -120 -346 -154q-8 -43 -8 -78q0 -85 45 -129q38 -37 89 -37q60 0 137 50q59 40 188 168q26 25 57 25t68 -24q36 -25 49 -48q6 -9 6 -19q0 -18 -20 -37 q-264 -265 -493 -265q-120 0 -230 72q-120 78 -120 256zM323 568q180 77 230 192q18 41 18 64q0 28 -28 28h-2q-50 -3 -103 -70q-79 -98 -112 -204z" />
<glyph unicode="f" horiz-adv-x="781" d="M39 63q0 -27 28 -44q28 -19 74 -19h5q43 0 75 17q38 20 44 55q97 625 104 674q12 -1 28 -1q81 0 277 29q36 6 62 29q21 19 21 41q0 10 -4 20q-23 54 -98 54q-19 0 -41 -3q-117 -18 -161 -20q-23 -1 -37 -1q-13 1 -18.5 7.5t-5.5 42.5q0 62 30 191q33 142 66.5 209.5 t69.5 79.5q11 4 22 4q24 0 47 -17q15 -12 15 -41q0 -37 -23 -101q-4 -12 -4 -22q0 -22 18 -39q23 -23 51 -26h9q28 0 61 11q41 14 53 45q29 79 29 140q0 56 -25 95q-58 96 -212 102h-14q-127 0 -224 -84q-96 -83 -131 -217q-89 -553 -190 -1202q-1 -4 -1 -9z" />
<glyph unicode="g" horiz-adv-x="999" d="M-140 -363q0 3 1 6q5 23 42 43q50 26 92 26q33 0 61 -16q172 -96 287 -96h2q154 0 236 153q57 134 79.5 225.5t32.5 235.5q-255 -160 -384 -193q-48 -12 -88 -12q-140 0 -185 149q-14 46 -14 94q0 149 132 315q153 192 347 271q125 50 233 50q71 0 135 -22 q100 -34 108 -170q-3 -67 -21 -140q-97 -592 -128 -707q-80 -269 -220 -336q-114 -62 -250 -62q-206 0 -461 142q-37 21 -37 44zM254 244q0 -71 34 -71h4q68 8 212.5 88.5t175.5 113.5t58 166q12 74 16 114q-2 82 -56 82q-20 0 -45 -10q-177 -71 -287 -221 q-109 -147 -112 -254v-8z" />
<glyph unicode="h" horiz-adv-x="1021" d="M0 240q0 58 10 126q10 66 33 166q31 134 34 148q106 522 110 621q1 36 37 56q32 19 78 19t77 -19q33 -20 33 -54v-2q-3 -85 -119 -599q-6 -29 -32 -148q-21 -90 -54 -252q115 253 136 279q125 200 305 200h4q201 -17 273 -242q24 -73 43 -204q25 -161 33 -199q2 -9 2 -17 q0 -27 -23 -48q-26 -23 -71 -29q-13 -2 -26 -2q-28 0 -53 10q-39 15 -46 47q-10 47 -35 199q-21 125 -42 198q-27 95 -40 110q-13 17 -31 17q-33 0 -81 -60q-69 -87 -115 -190q-10 -22 -44 -110q-27 -72 -49 -112q-66 -125 -171 -145q-21 -4 -39 -4q-70 0 -99 55 q-38 73 -38 185z" />
<glyph unicode="i" horiz-adv-x="419" d="M39 64q0 5 1 9q29 202 90 737q4 35 42 55q31 18 74 18h5q45 0 75 -19q29 -18 29 -47v-7q-61 -535 -90 -737q-5 -35 -43 -55q-34 -18 -80 -18q-45 1 -75 19q-28 18 -28 45zM187 1335q0 9 2 20q1 7 3 18q3 14 4 18q7 34 59 48q25 6 48 6q16 0 31 -3q81 -14 81 -70 q0 -9 -2 -19q-1 -7 -4 -19q-2 -12 -4 -18q-7 -34 -59 -47q-25 -7 -49 -7q-15 0 -30 3q-80 15 -80 70z" />
<glyph unicode="j" horiz-adv-x="523" d="M-375 -244q0 9 5 18q13 22 55 36q40 13 73 13q50 0 81 -30q77 -73 136 -73q87 0 136 156q36 115 57 413q37 528 55 635q6 35 44 55q33 17 75 17h5q46 -1 74 -19q27 -17 27 -43q0 -5 -1 -10q-18 -110 -38 -582q-16 -365 -96 -570q-89 -227 -293 -227h-10q-186 6 -365 174 q-20 19 -20 37zM269 1414q0 9 2 19q1 6 4 18l3 18q8 34 59 48q25 6 48 6q16 0 32 -3q80 -14 80 -70q0 -9 -2 -19q-1 -6 -4 -19l-3 -18q-8 -34 -59 -47q-26 -7 -50 -7q-15 0 -30 3q-80 15 -80 71z" />
<glyph unicode="k" horiz-adv-x="912" d="M10 81q0 5 1 10q136 713 180 1293q3 36 40 56q32 19 78 19q46 -1 76 -19q31 -19 31 -50v-6q-25 -323 -78 -691q121 73 424 141q16 4 32 4q24 0 47 -10q34 -14 49 -42q8 -14 8 -27t-8 -26q-18 -28 -69 -40q-198 -44 -287 -86q-137 -64 -137 -147q0 -32 20 -66 q89 -149 358 -257q49 -20 54 -49q1 -4 1 -8q0 -21 -24 -42q-44 -39 -92 -39q-25 0 -52 11q-271 109 -397 242l-29 -161q-7 -35 -45 -55q-33 -16 -76 -16h-5q-45 0 -74 18q-26 18 -26 43z" />
<glyph unicode="l" horiz-adv-x="443" d="M41 67q4 521 184 1367q7 32 45 47q24 9 52 9q13 0 27 -2q45 -6 71 -29q24 -21 24 -49q0 -7 -2 -15q-172 -808 -176 -1328q0 -35 -35 -55q-32 -19 -78 -19q-45 0 -77 19q-35 20 -35 55z" />
<glyph unicode="m" horiz-adv-x="1707" d="M17 347q0 -87 26 -136q42 -79 156 -79q96 0 249 150q43 43 152 224q71 118 71 127v1l-2 -37q-1 -13 -1 -27q0 -34 4 -70q24 -237 42 -288q39 -109 120 -109q48 0 110 38q108 65 202 205q25 37 77 123q49 83 78 125q-1 -1 -1 -5q0 -31 52 -251q43 -182 112 -292 q29 -46 101 -46q21 0 46 4q45 7 66 28q13 13 13 27q0 12 -9 26q-11 16 -110 422q-33 133 -83 199q-64 84 -170 84q-127 0 -254 -185q-29 -42 -88 -141q-56 -91 -91 -140q14 20 14 105q0 31 -2 71q-8 153 -71 244q-55 78 -139 78q-39 0 -84 -17q-89 -34 -174 -169 q-23 -36 -65 -114q-39 -72 -59 -102q-55 -82 -65 -82q-3 0 -3 5v2q0 12 9 51q12 57 17 89q25 153 25 244q0 44 -6 73q-7 35 -46 55q-35 17 -81 17q-45 -1 -73 -19q-26 -17 -26 -43q0 -5 1 -10q4 -20 4 -50q0 -51 -12 -133q-28 -185 -30 -221q-2 -27 -2 -51z" />
<glyph unicode="n" horiz-adv-x="1051" d="M34 173q0 18 2 38q46 469 46 489q1 35 36 56q32 18 78 18t77 -18q34 -20 34 -54v-2q-2 -79 -31 -326q89 156 132 214q80 110 208 149q45 13 86 13q88 0 156 -62q80 -75 99 -251q30 -285 44 -285q26 10 50 10q49 0 94 -40q24 -20 24 -41q0 -4 -1 -8q-5 -29 -54 -47 q-70 -26 -127 -26q-83 0 -140 54q-84 79 -102 262q-18 170 -32 213q-17 49 -42 49q-31 0 -75 -74q-120 -203 -130 -220q-96 -152 -141 -196q-72 -70 -149 -70q-32 0 -65 12q-77 30 -77 143z" />
<glyph unicode="o" horiz-adv-x="936" d="M32 331v18q4 174 91 344q90 178 222 256q14 10 34 17q10 5 23 7q74 23 142 23q102 0 189 -52q152 -90 168 -287q2 -28 2 -56q0 -189 -113 -349q-131 -185 -349 -236q-68 -16 -125 -16q-121 0 -194 72q-90 87 -90 259zM247 337q0 -38 4 -73q15 -117 81 -117q10 0 21 3 q139 33 232 158q91 120 94 266v17q0 105 -35 179q-37 80 -103 80q-23 0 -49 -10q-92 -42 -160 -165q-57 -104 -76 -222q-9 -60 -9 -116z" />
<glyph unicode="p" horiz-adv-x="1099" d="M-42 -465q37 348 46 400l8 42l75 588q5 90 36 247q7 32 45 47q25 10 53 10q13 0 26 -2q29 -6 55 -29q24 -21 24 -49q0 -8 -2 -16q-14 -54 -29 -179q56 101 138.5 182t130.5 114q135 96 264 96q37 0 74 -8q176 -36 176 -227q0 -32 -5 -69q-25 -177 -137 -368 q-101 -173 -243 -254q-99 -56 -202 -56q-66 0 -134 23q-32 10 -71 42q-79 -303 -103 -534q-4 -36 -41 -56q-33 -18 -79 -18t-75 19q-30 19 -30 49v6zM335 273q18 -111 105 -126q13 -3 27 -3q71 0 136 68q107 112 152 202q101 201 101 296q0 8 -1 14q-6 63 -54 63 q-53 0 -157 -76q-102 -82 -204.5 -230.5t-104.5 -207.5z" />
<glyph unicode="q" horiz-adv-x="952" d="M34 327q0 130 63 264q92 197 265 297q136 78 276 78q20 0 41 -2q191 -15 235 -190q21 -82 21 -189q0 -186 -63 -447q-82 -344 -82 -541q0 -54 6 -97v-7q0 -29 -28 -47q-29 -19 -74 -19h-5q-43 0 -75 17q-38 20 -43 56q-5 35 -5 81q0 199 91 611q-47 -87 -176 -147 q-103 -42 -193 -42q-13 0 -26 1q-166 11 -212 194q-16 64 -16 129zM263 328q0 -42 5 -83q12 -86 67 -86h5q117 11 308 197q30 36 51 120q13 53 13 121q0 38 -4 82q-15 143 -91 143q-24 0 -55 -15q-121 -59 -203 -175q-84 -119 -94 -252q-2 -26 -2 -52z" />
<glyph unicode="r" horiz-adv-x="893" d="M52 207q0 39 2 94q3 81 18 244q15 162 28 244q7 37 37 56q33 19 68 19q46 0 67 -19q28 -22 33 -56q-2 -46 -36 -289q87 281 169 357q116 124 254 135q13 1 25 1q128 0 218 -104q17 -20 17 -38q0 -11 -6 -22q-14 -24 -56 -37q-38 -12 -68 -12q-51 0 -81 35q-25 28 -48 28 q-6 0 -12 -2q-19 -8 -65 -57q-94 -103 -154 -227q-76 -156 -109 -287q-55 -218 -65 -233q-19 -29 -72 -36q-13 -2 -26 -2q-32 0 -56 12q-65 32 -79 127q-3 22 -3 69z" />
<glyph unicode="s" horiz-adv-x="821" d="M52 73q0 30 26 51q29 23 78 23q182 0 245 13q75 15 123 44q41 24 41 51q0 28 -48 58q-42 28 -85 53q-228 138 -270 288q-12 42 -12 80q0 142 166 230q133 71 266 71q54 0 107 -11q51 -11 69 -39q8 -12 8 -25t-8 -28q-15 -27 -49 -42q-24 -10 -50 -10q-15 0 -30 3 q-23 5 -45 5q-42 0 -82 -17q-58 -25 -92 -75q-31 -47 -31 -96v-12q5 -62 59 -110q32 -30 197 -135q156 -99 156 -192q0 -24 -10 -47q-58 -137 -276 -181q-113 -23 -349 -23q-49 0 -78 23q-26 21 -26 50z" />
<glyph unicode="t" horiz-adv-x="923" d="M16 891q0 29 26 50q29 23 78 24l206 2q57 176 79 275q7 32 46 47q25 10 53 10q13 0 26 -2q45 -6 71 -29q23 -21 23 -49q0 -8 -2 -16q-20 -91 -61 -233l240 3q49 0 78 -22q26 -21 26 -50q0 -30 -26 -51q-29 -23 -78 -23q-47 -1 -141 -2t-140 -2q-44 -150 -65 -237 q-36 -148 -36 -271q0 -30 2 -59q8 -110 56 -110t137 108q21 25 66 31q13 2 26 2q29 0 56 -9q42 -12 57 -37q7 -11 7 -22q0 -19 -17 -39q-125 -150 -344 -177q-26 -3 -49 -3q-76 0 -130 32q-81 48 -99 163q-8 50 -8 108q0 206 99 518q-104 -2 -158 -2h-4q-46 0 -74 22 q-26 20 -26 50z" />
<glyph unicode="u" horiz-adv-x="958" d="M28 427q0 39 3 83q13 204 31 370q0 35 36 56q29 17 66 17h4q46 0 77 -18q35 -21 35 -56q-47 -331 -47 -452q0 -33 3 -50q25 -155 140 -206q29 -13 57 -13q25 0 49 10q57 23 99 98q137 226 139 599q0 35 35 55q32 19 77 19q46 0 78 -19q34 -19 34 -53v-2q-1 -275 -62 -458 q-94 -310 -333 -388q-57 -19 -116 -19q-75 0 -153 31q-134 52 -215 177q-37 77 -37 219z" />
<glyph unicode="v" horiz-adv-x="995" d="M37 839v4q0 32 32 52q31 19 77 19q45 0 78 -19q36 -20 37 -56q8 -167 82 -387q51 -152 81 -206q57 58 118 172q78 147 206 450q13 31 55 44q25 8 52 8q15 0 30 -2q45 -7 68 -29q16 -16 16 -36q0 -11 -5 -24q-157 -374 -191 -436q-135 -247 -319 -337q-24 -12 -53 -12 q-14 0 -28 3q-42 9 -73 35q-103 90 -185 366q-71 242 -78 391z" />
<glyph unicode="w" horiz-adv-x="1634" d="M23 834v6q0 30 30 49t76 19t79 -18q37 -21 40 -56q41 -461 141 -604q18 1 35 32q34 65 66 132q65 118 145 204q42 45 107 64q32 10 62 10q33 0 62 -12q79 -30 122 -132q14 -34 31 -92l51 -145q17 -41 26 -61q12 -28 28 -28q29 0 72 88q125 281 194 581q7 32 46 47 q25 10 53 10q13 0 26 -2q45 -6 71 -29q22 -21 22 -47q0 -8 -2 -17q-61 -267 -115 -411q-93 -245 -225 -353q-84 -68 -158 -68q-89 0 -163 99q-56 74 -161 348q-1 3 -4 9q-2 6 -3 10q-12 -19 -70 -112q-60 -121 -94 -178q-41 -67 -108 -109q-46 -30 -106 -30q-15 0 -32 2 q-81 10 -128 61q-167 184 -216 733z" />
<glyph unicode="x" horiz-adv-x="866" d="M5 36q0 -8 5 -17q13 -22 53 -34q36 -11 66 -11q47 0 76 30q223 296 232 338q0 -30 225 -338q29 -30 76 -30q30 0 66 11q39 12 52 34q5 9 5 18q0 17 -17 36q-21 22 -137 170t-125 241v8q0 64 99 181q25 29 86 94q49 52 64 73q14 19 14 37q0 12 -7 23q-15 24 -54 35 q-25 8 -51 8q-12 0 -25 -2q-41 -7 -59 -32q-26 -34 -102 -121q-71 -82 -107 -172q-35 95 -113 180q-81 88 -99 113t-59 32q-13 2 -25 2q-26 0 -51 -8q-40 -11 -54 -35q-7 -11 -7 -23q0 -18 14 -37q19 -27 64 -75q64 -70 78 -86q94 -108 106 -179q1 -8 1 -17q0 -81 -129 -238 t-143 -172q-18 -19 -18 -37z" />
<glyph unicode="y" horiz-adv-x="1034" d="M-43 -361q0 9 4 19q12 24 53 40q39 15 72 17q6 1 12 1q41 0 70 -25q88 -78 173 -93q23 -5 44 -3q86 6 144 69.5t88 141.5q34 84 84 259q-59 -62 -127 -82q-57 -19 -116 -19q-75 0 -153 31q-134 52 -215 177q-37 77 -37 219q0 39 3 83q13 204 31 370q0 35 36 56 q29 17 66 17h4q46 0 77 -18q35 -21 35 -56q-47 -331 -47 -452q0 -33 3 -50q25 -155 140 -206q29 -13 57 -13q25 0 49 10q57 23 99 98q137 226 139 599q0 35 35 55q32 19 77 19q36 0 58 -19q34 -19 34 -53v-2q-1 -179 -34.5 -471.5t-82.5 -478.5q-38 -174 -155 -309 q-111 -120 -262 -130q-16 -1 -32 -1q-36 0 -75 6q-181 31 -328 159q-21 17 -23 35z" />
<glyph unicode="z" horiz-adv-x="870" d="M25 180q0 -41 26 -77q50 -70 231 -92q75 -9 172 -9q125 0 285 15q47 4 76 29q26 23 26 53v2q0 28 -25 46q-23 17 -61 17q-8 0 -16 -1q-169 -16 -287 -16q-83 0 -141 8q-49 7 -69 22q4 -3 6 -3q1 0 1 2q-2 8 -2 7q19 71 131 164q34 28 94 73q64 48 84 64q137 112 154 131 q71 74 71 135q0 20 -8 39q-47 109 -277 109h-28q-38 -1 -345 -41q-52 -7 -70 -32q-7 -11 -7 -24t7 -27q15 -28 50 -45q30 -14 62 -14q9 0 18 1q194 26 299 26q41 0 68 -4q-1 -4 -2 -5q-14 -20 -347 -307q-103 -89 -140 -143q-36 -55 -36 -103z" />
<glyph unicode="{" horiz-adv-x="1087" d="M80 613v4q0 40 60 55q110 28 146 105q21 43 21 111q0 27 -3 55q-20 196 -20 285q0 51 6 67q60 141 245 191q120 34 324 34h28q57 -2 90 -24q30 -20 30 -48q0 -29 -30 -49q-31 -20 -84 -20h-18q-201 0 -277 -87q-56 -66 -56 -218q0 -226 -4 -259q-24 -143 -140 -213 q93 -81 117 -242q0 -4 14 -286q7 -164 61 -234q68 -84 224 -84q18 0 37 1h12q50 0 80 -17q28 -18 28 -46q0 -29 -30 -51q-33 -23 -90 -28q-43 -2 -82 -2q-414 0 -488 260v17q0 62 9 356v26q0 229 -150 279q-58 20 -60 62z" />
<glyph unicode="|" horiz-adv-x="442" d="M110 -284l17 1731q0 36 33 57q28 18 71 18q42 0 70 -18q32 -21 32 -57l-17 -1731q0 -36 -31 -57q-30 -18 -71 -18q-42 0 -72 18q-32 21 -32 57z" />
<glyph unicode="}" horiz-adv-x="1087" d="M118 -306q0 28 29 46q30 17 80 17h12q19 -1 37 -1q156 0 226 84q55 70 66 234q20 282 20 286q28 161 122 242q-114 70 -135 213q-1 12 -1 52q0 66 3 207v16q0 139 -52 202q-74 87 -275 87h-18q-53 0 -83 20q-29 19 -29 47v2q0 28 31 48q33 22 90 24h28q204 0 324 -34 q184 -50 241 -191q4 -13 4 -51v-16q-2 -89 -26 -285q-4 -28 -4 -55v-12q0 -60 18 -99q35 -77 144 -105q59 -15 59 -54v-5q-3 -42 -62 -62q-151 -50 -156 -279v-26q1 -196 1 -289v-84q-80 -260 -494 -260q-39 0 -82 2q-57 5 -89 28q-29 21 -29 49v2z" />
<glyph unicode="~" horiz-adv-x="1225" d="M80 1205q0 9 3 18q45 154 144 221q70 48 162 48q36 0 74 -7q26 -6 186 -115q107 -75 149 -75q12 0 18 6q30 29 81 98q50 69 80 99q25 23 62 23q26 0 60 -12q33 -13 43 -32q3 -7 3 -14q0 -16 -16 -32q-30 -30 -72 -82q-55 -70 -67 -83q-79 -93 -168 -112q-14 -2 -30 -2 q-58 0 -133 42q-31 18 -81 53q-58 38 -79 51q-71 42 -117 42q-12 0 -23 -3q-68 -18 -106 -149q-8 -29 -40 -41q-20 -9 -41 -9q-11 0 -23 2q-35 7 -54 27q-15 17 -15 38z" />
<glyph unicode="&#xa1;" horiz-adv-x="515" d="M73 61v11q51 556 76 834q8 84 134 84h5q52 0 87 -21q33 -21 36 -53q0 -4 -1 -10q-25 -278 -76 -834q-7 -84 -131 -84h-5q-54 1 -89 22q-33 20 -36 51zM153 1341v4q0 10 4 21l17 42q25 65 108 65q22 0 47 -5q42 -7 75 -34q28 -23 30 -47v-4q0 -10 -4 -20q-5 -7 -9 -21 q-6 -13 -9 -21q-26 -63 -107 -63q-22 0 -49 5q-42 7 -75 33q-26 21 -28 45z" />
<glyph unicode="&#xa2;" horiz-adv-x="1176" d="M80 360q0 18 2 38q19 223 159 384q127 148 331 217q18 185 29 291q3 41 46 65q39 21 92 21q52 0 88 -23q35 -22 35 -57v-6l-24 -241h37q66 0 131 -8q60 -9 81 -37q9 -14 9 -29t-9 -31q-36 -69 -119 -69q-15 0 -31 3q-32 3 -65 3q-24 0 -51 -2q-9 -94 -28 -285l-27 -285 q16 14 31 29q36 30 92 30q39 0 88 -15q50 -15 65 -41q6 -9 6 -19q0 -21 -24 -42q-141 -122 -282 -188q-24 -244 -36 -367q-5 -41 -48 -65q-38 -21 -92 -21q-52 0 -87 23q-34 21 -34 55v8q4 49 15 150q9 100 13 150h-7q-93 0 -179 34q-105 42 -162 149q-45 85 -45 181z M338 356q0 -95 48 -147q38 -44 96 -44h8q10 96 30 306q19 201 30 308q-152 -114 -195 -302q-17 -67 -17 -121z" />
<glyph unicode="&#xa3;" horiz-adv-x="1369" d="M80 809v7q0 26 27 51q50 44 104 44q30 0 63 -15q3 -2 9 -3l9 -3q-2 84 -11 154q-3 27 -15 77q-13 61 -16 82q-9 48 -9 87q0 41 10 71q45 124 150 181q75 39 167 39q25 0 52 -3q264 -30 387 -237q9 -15 9 -30q0 -18 -15 -33q-24 -24 -76 -33q-27 -4 -51 -4q-84 0 -119 55 q-39 68 -93 99q-30 18 -57 18q-34 0 -64 -33q-35 -39 -35 -85v-5q0 -1 15 -99q32 -201 33 -331q44 3 63 7q18 3 38 3q27 0 54 -7q52 -15 69 -56q4 -12 4 -24q0 -25 -24 -46q-28 -26 -72 -33q-64 -12 -142 -17q-9 -58 -128 -429q165 -79 347 -85h22q200 0 246 123 q14 36 63 52q29 11 62 11q16 0 33 -3q52 -8 79 -35q21 -18 21 -43q0 -12 -6 -27q-97 -251 -480 -251h-27q-354 8 -595 165q-36 24 -36 60q0 11 3 23q10 39 73 207q48 124 59 210l3 21q1 15 1 19q-82 17 -142 44q-56 25 -62 60z" />
<glyph unicode="&#xa4;" horiz-adv-x="1682" d="M80 83v3q0 34 36 60l191 133q-50 80 -50 180v12q3 176 114 318q-177 168 -258 246q-19 18 -19 39q0 14 9 29q18 33 57 48q37 15 72 15q58 0 106 -45q33 -32 98 -93l99 -93q66 40 151 67q20 9 39 14q108 22 212 22q118 0 231 -30l108 81q70 54 106 83q35 25 86 25h6 q54 -1 93 -25q36 -24 36 -57v-3q-2 -35 -36 -60q-95 -72 -197 -152q90 -88 92 -222v-9q0 -210 -203 -375q20 -13 198 -139q36 -26 38 -62q0 -34 -38 -58q-37 -26 -91 -27q-56 0 -93 27q-33 24 -102 72l-102 72q-137 -62 -272 -77q-43 -4 -84 -4q-132 0 -243 48 q-28 -21 -84 -60q-57 -41 -85 -60q-36 -26 -86 -26h-6q-54 0 -93 26q-36 22 -36 57zM518 482q0 -111 60 -170q48 -48 122 -48q27 0 58 6q167 35 291 125q153 111 153 259v3q-3 152 -142 195q-53 18 -119 18t-145 -18q-114 -30 -195 -136q-80 -105 -83 -224v-10z" />
<glyph unicode="&#xa5;" horiz-adv-x="1740" d="M80 1400q0 12 6 22q15 27 65 42q45 15 82 15q59 0 95 -37q4 -6 510 -528q34 28 129 102q75 57 99 82q243 255 351 407q33 45 94 45q33 0 72 -12q50 -15 68 -45q9 -14 9 -29q0 -22 -18 -46q-125 -174 -351 -405q-102 -105 -201 -195q78 3 118 3q57 -2 92 -27 q30 -24 30 -59q0 -34 -30 -58q-33 -26 -86 -26h-6q-45 0 -123 -1q-96 -2 -127 -2q0 -4 -2 -12q-7 -54 -8 -58q162 -2 228 -2q57 0 90 -27q30 -24 30 -58v-3q0 -33 -30 -54q-33 -27 -90 -27q-72 0 -249 3q-8 -63 -16 -141q-16 -123 -24 -185q-4 -40 -48 -64q-36 -20 -85 -20 h-8q-52 0 -87 21q-33 21 -33 56v7q17 125 40 326q-117 0 -201 -3h-6q-53 0 -84 24q-30 22 -30 57q0 34 30 58q33 29 90 30q91 3 222 5q8 49 10 61q1 11 1 17q-148 15 -261 54q-55 21 -63 54q-1 4 -1 9q0 24 28 48q53 46 111 46q29 0 57 -10q3 -2 9 -3q6 -2 9 -2l-486 501 q-21 23 -21 44z" />
<glyph unicode="&#xa6;" horiz-adv-x="421" d="M80 -321v725q0 42 42 66q36 21 89 21q54 0 90 -21q40 -24 40 -66v-725q0 -42 -40 -66q-36 -21 -90 -21q-53 0 -89 21q-42 24 -42 66zM80 772v665q0 40 42 64q36 21 89 21q54 0 90 -21q40 -24 40 -64v-665q0 -41 -40 -65q-36 -21 -90 -21q-53 0 -89 21q-42 24 -42 65z" />
<glyph unicode="&#xa7;" horiz-adv-x="1069" d="M80 1245v17q0 142 101 225q94 78 250 84h27q134 0 258 -53q146 -61 207 -166q11 -17 11 -32q0 -16 -15 -31q-26 -24 -77 -33q-27 -5 -51 -5q-85 0 -118 56q-41 67 -120 93q-32 10 -60 10q-47 0 -89 -28q-63 -44 -63 -114q0 -26 9 -56q26 -84 104 -166q46 -47 163 -120 q138 -86 183 -122q132 -103 132 -225q0 -64 -37 -135q-38 -70 -101 -117q173 -130 192 -274q3 -17 3 -35q0 -57 -31 -111q-36 -66 -105 -106q-123 -71 -260 -71q-70 0 -144 18q-216 54 -337 233q-17 24 -17 43q0 17 11 32q18 30 66 45q39 12 70 12q63 0 95 -47 q93 -136 195 -159q30 -6 57 -6q52 0 90 26q52 37 52 90q0 16 -6 36q-36 108 -189 205q-186 12 -310 137q-98 96 -98 205q0 30 8 62q31 127 168 228q-26 19 -36 30q-182 187 -188 325zM383 593q0 -74 78 -120q72 -42 89 -45q4 -2 10 -2q29 0 59 36q54 63 54 116q0 18 -6 36 q-35 90 -173 163q-85 -63 -106 -148q-5 -20 -5 -36z" />
<glyph unicode="&#xa8;" horiz-adv-x="847" d="M50 1683q0 14 6 32l12 25l10 27q33 79 117 79q22 0 50 -7q41 -8 74 -41q26 -26 26 -56q0 -15 -7 -31l-21 -52q-32 -82 -118 -82q-23 0 -47 7q-44 8 -77 42q-25 26 -25 57zM532 1660l1 27l-1 29q0 85 77 118q21 9 48 14q13 3 27 3q28 0 58 -12q33 -14 45 -42q6 -13 6 -31 l2 -56v-4q0 -85 -78 -117q-21 -9 -46 -13q-14 -3 -29 -3q-29 0 -58 12q-33 14 -45 42q-6 14 -7 33z" />
<glyph unicode="&#xa9;" horiz-adv-x="1693" d="M80 534q0 75 14 158q49 297 223 531q186 249 456 337q20 9 41 14q15 3 31 4q86 15 165 15q228 0 396 -120q207 -147 207 -409q0 -51 -7 -107q-53 -370 -324 -637q-270 -269 -642 -314q-45 -6 -87 -6q-245 0 -372 186q-101 146 -101 348zM340 522q0 -79 15 -151 q43 -201 202 -201q27 0 59 6q268 52 474 258q210 210 249 477q9 63 9 118q0 176 -86 281q-91 112 -256 112q-57 0 -123 -13q-189 -51 -335 -258q-124 -176 -178 -395q-30 -123 -30 -234zM385 624q0 65 25 143q84 264 309 385q116 62 215 62q63 0 118 -24q74 -33 92 -101 q6 -21 6 -45q0 -43 -23 -91q-27 -62 -114 -62q-22 0 -48 5q-52 9 -78 34q-18 18 -18 39q0 14 6 29q6 12 30 31q6 5 6 6q-1 0 -7 -3q-38 -24 -57 -37q-51 -41 -92 -92q-87 -114 -102 -213q-6 -36 -6 -66q0 -64 30 -91q5 -5 15 -5q38 0 149 59q52 27 97 27q47 0 87 -27 q35 -24 38 -62v-3q0 -36 -38 -55q-207 -108 -355 -108q-104 0 -177 54q-108 78 -108 211z" />
<glyph unicode="&#xab;" horiz-adv-x="1429" d="M193 758v17q0 39 37 71q2 2 4 3q11 14 25 23q55 47 143 124q116 100 174 149q38 34 76 34q6 0 14 -1q39 -7 66 -44q33 -45 33 -83q0 -39 -37 -71q-137 -110 -286 -214q150 -104 286 -213q37 -32 37 -71q0 -38 -33 -83q-27 -37 -66 -44q-8 -1 -14 -1q-38 0 -76 34 q-58 49 -174 149q-88 77 -143 124q-14 9 -25 23q-2 1 -4 3q-37 32 -37 71zM696 758v17q0 39 37 71q2 2 4 3q11 14 25 23q55 47 143 124q116 100 174 149q38 34 76 34q6 0 14 -1q39 -7 66 -44q33 -45 33 -83q0 -39 -37 -71q-137 -110 -286 -214q150 -104 286 -213 q37 -32 37 -71q0 -38 -33 -83q-27 -37 -66 -44q-8 -1 -14 -1q-38 0 -76 34q-58 49 -174 149q-88 77 -143 124q-14 9 -25 23q-2 1 -4 3q-37 32 -37 71z" />
<glyph unicode="&#xad;" horiz-adv-x="877" d="M80 684v3q0 42 29 68q33 30 85 30h6l466 -5q57 -3 90 -36q30 -32 30 -73q0 -44 -30 -74q-32 -30 -84 -30h-6l-466 5q-57 3 -90 38q-30 30 -30 74z" />
<glyph unicode="&#xae;" horiz-adv-x="1692" d="M80 533q0 76 14 159q49 297 223 531q186 249 455 337q21 9 42 14q13 3 31 4q86 15 164 15q228 0 396 -120q207 -147 207 -408q0 -51 -8 -108q-52 -370 -322 -637q-272 -269 -644 -314q-45 -6 -87 -6q-243 0 -372 186q-99 146 -99 347zM340 524q0 -80 15 -153 q42 -201 202 -201q27 0 59 6q235 45 427 216q-22 -5 -43 -5q-42 0 -71 20q-121 79 -214 163q-5 -82 -5 -84q0 -42 -42 -66q-36 -21 -90 -21q-52 0 -88 21q-41 24 -41 66q0 59 50 432q15 113 48 167q40 67 136 100q65 23 132 23q77 0 155 -29q163 -55 192 -195q3 -16 3 -31 q0 -42 -20 -83q-27 -54 -79 -85q-80 -47 -152 -59q-33 -4 -52 -7q16 -18 121 -98q77 -60 131 -94q21 -15 31 -32q161 191 192 416q9 64 9 121q0 173 -85 278q-90 112 -255 112q-57 0 -123 -13q-189 -51 -336 -258q-123 -176 -177 -395q-30 -123 -30 -232zM749 878 q132 3 149 46q6 15 6 29q0 18 -9 36q-17 31 -51 42q-12 4 -23 4q-33 0 -51 -43q-15 -33 -21 -114z" />
<glyph unicode="&#xaf;" horiz-adv-x="1110" d="M80 1862v3q0 42 29 68q33 30 85 30h6l466 -5q57 -3 90 -36q30 -32 30 -73q0 -44 -30 -74q-32 -30 -84 -30h-6l-466 5q-57 3 -90 38q-30 30 -30 74z" />
<glyph unicode="&#xb0;" horiz-adv-x="961" d="M80 1216v23q0 132 98 234q94 99 244 138q17 6 29 9q16 3 34 3h35q126 0 223 -65q113 -75 134 -213q4 -28 4 -55q0 -108 -76 -197q-90 -103 -236 -130q-60 -11 -117 -11q-103 0 -193 35q-170 66 -179 229zM340 1233q4 -69 52 -99q27 -17 59 -17q27 0 57 12q63 23 93 80 q21 39 21 87q0 18 -3 36q-8 45 -36 84q-29 40 -56 40h-6q-78 -16 -130 -81q-51 -60 -51 -130v-12z" />
<glyph unicode="&#xb1;" horiz-adv-x="1411" d="M80 900q0 34 30 55q27 20 68 20q10 0 22 -2q174 -15 411 -22q-12 136 -12 237q0 51 3 93q5 40 47 64q37 21 91 21q53 0 87 -22q36 -23 36 -57v-6q-3 -42 -3 -93q0 -102 12 -242q170 -3 339 -3q57 0 90 -25q30 -24 30 -59q0 -34 -30 -58q-33 -27 -90 -27q-166 0 -324 1 q9 -115 9 -210q0 -121 -15 -210q-15 -84 -141 -84h-4q-53 2 -86 23q-31 21 -31 51q0 4 1 10q15 87 15 206q0 99 -10 220q-243 8 -425 23q-55 4 -88 34q-30 27 -32 62zM275 110v3q0 33 29 54q33 24 85 24h6l710 -21q57 -2 90 -29q30 -25 30 -58q0 -35 -30 -59 q-32 -24 -84 -24h-6l-710 21q-57 2 -90 30q-30 24 -30 59z" />
<glyph unicode="&#xb4;" horiz-adv-x="752" d="M137 1612q0 30 38 60q55 45 97 77q111 90 167 135q36 29 79 29q42 0 92 -26q42 -21 49 -52q2 -6 2 -11q0 -30 -38 -60q-91 -71 -264 -212q-36 -29 -79 -29q-42 0 -92 26q-42 21 -49 52q-2 6 -2 11z" />
<glyph unicode="&#xb5;" horiz-adv-x="1625" d="M80 1080q3 197 80 278q46 46 100 46q78 0 174 -94q43 -44 167 -383t144 -366q51 -74 79 -74q15 0 24 23q0 3 45 111t124 603q33 169 191 189q66 0 133 -88q67 -86 102 -275v2q0 -3 41 -305q36 -252 61 -604v-6q0 -36 -31 -57q-30 -23 -76 -23q-44 0 -76 21q-37 24 -39 65 q-29 408 -82 754q-17 99 -49 222q-2 -1 -2 -4l-3 -3q-36 -336 -76.5 -478t-48.5 -169q-40 -125 -130 -188q-49 -36 -97 -36q-51 0 -100 39q-113 90 -192 229.5t-134.5 294t-100.5 357.5q0 -1 15 -475q5 -167 5 -828q0 -191 -12 -303q-3 -41 -41 -65q-33 -21 -79 -21 q-44 2 -74 23q-28 21 -28 55v8q12 106 12 304q0 692 -8 914q-2 27 -10 145q-8 101 -8 162z" />
<glyph unicode="&#xb6;" horiz-adv-x="997" d="M110 1004q0 134 99.5 222.5t271.5 88.5h416v-57h-114v-1230h-108v1230h-116v-1230h-109v665q-153 8 -246.5 95t-93.5 216z" />
<glyph unicode="&#xb7;" horiz-adv-x="444" d="M80 801q0 21 9 41q18 44 57 65q39 20 74 20q60 0 105 -61l21 -28q18 -24 18 -53q0 -20 -9 -40q-18 -43 -57 -64q-39 -20 -74 -20q-60 0 -105 61l-4 7l-2 1v3h-1l-2 1v3h-1l-5 5l-1 3v1h-2v3h-1v1h-2q-18 24 -18 51z" />
<glyph unicode="&#xb8;" horiz-adv-x="725" d="M80 -367q0 5 2 10q6 25 42 43q43 23 82 23q36 0 66 -22q41 -31 75 -31q5 0 10 2q44 8 59 67q5 19 5 46v11q-115 9 -149 62q-20 27 -20 71q0 54 30 133q11 31 52 45q25 9 53 9q14 0 29 -3q44 -7 69 -30q16 -16 16 -38q0 -10 -4 -21q-23 -65 -24 -85v-2l19 -2 q147 -19 153 -136v-19q0 -184 -190 -238q-63 -18 -121 -18q-119 0 -221 74q-33 25 -33 49z" />
<glyph unicode="&#xbb;" horiz-adv-x="1429" d="M193 482q0 39 37 71q137 110 287 214q-150 104 -287 213q-37 32 -37 71q0 38 33 83q27 37 67 44q7 1 14 1q38 0 76 -34q58 -49 173 -149q89 -77 143 -124q14 -9 26 -23q2 -1 3 -3q37 -32 37 -71v-17q0 -39 -37 -71q-1 -2 -3 -3q-12 -14 -26 -23q-54 -47 -143 -124 q-115 -100 -173 -149q-38 -34 -76 -34q-7 0 -14 1q-40 7 -67 44q-33 45 -33 83zM696 482q0 39 37 71q137 110 287 214q-150 104 -287 213q-37 32 -37 71q0 38 33 83q27 37 67 44q7 1 14 1q38 0 76 -34q58 -49 173 -149q89 -77 143 -124q14 -9 26 -23q2 -1 3 -3 q37 -32 37 -71v-17q0 -39 -37 -71q-1 -2 -3 -3q-12 -14 -26 -23q-54 -47 -143 -124q-115 -100 -173 -149q-38 -34 -76 -34q-7 0 -14 1q-40 7 -67 44q-33 45 -33 83z" />
<glyph unicode="&#xbf;" horiz-adv-x="983" d="M38 272q0 86 38 159q39 77 150 180q128 120 166 173q73 102 73 161v15q0 37 39 67q25 19 59 28q12 4 27 7q15 2 28 2q35 0 60 -13q31 -14 39 -43q3 -10 3 -21v-16q0 -208 -287 -422q-148 -110 -148 -225q0 -28 8 -55q3 -10 7 -20q61 -155 187 -155h10q25 1 49 8 q98 29 155 160q21 50 80 67q30 9 70 9h8q50 -1 75 -24q9 -9 13 -21q2 -7 2 -15q0 -16 -8 -35q-67 -152 -200 -248q-72 -50 -150 -73q-62 -19 -128 -19q-13 0 -25 1q-134 6 -240 73q-111 70 -144 182l-5 17q-11 50 -11 96zM439 1275q0 15 8 32l23 53q37 83 135 83q26 0 54 -6 q50 -9 88 -44q28 -26 28 -57q0 -16 -7 -34l-13 -26l-12 -26q-38 -81 -133 -81q-26 0 -57 6q-47 9 -85 42q-29 27 -29 58z" />
<glyph unicode="&#xc0;" d="M10 91q0 21 15 45l399 799q27 42 78 136q56 107 84 152q107 180 212 244q46 27 91 27q47 0 83 -27q90 -117 244.5 -502.5t431.5 -863.5q9 -15 9 -30q0 -18 -15 -33q-25 -26 -76 -33q-29 -5 -53 -5q-84 0 -117 56q-187 324 -291 534q-22 -2 -249 -8q-67 -1 -187 -1 q-95 -2 -149 -2l-268 -528q-32 -47 -93 -47q-32 0 -72 12q-48 14 -68 44q-9 15 -9 31zM494 1891q0 5 2 11q7 31 49 52q50 26 92 26q43 0 79 -29q56 -45 111 -95q111 -91 166 -136q38 -30 38 -60q0 -5 -2 -11q-7 -31 -49 -52q-50 -26 -92 -26q-43 0 -79 29q-173 141 -277 231 q-38 30 -38 60zM598 750h155l129 -1h45q64 0 112 3q-102 223 -183 466q-130 -199 -172 -286.5t-86 -181.5z" />
<glyph unicode="&#xc1;" d="M10 91q0 21 15 45l399 799q27 42 78 136q56 107 84 152q107 180 212 244q46 27 91 27q47 0 83 -27q90 -117 244.5 -502.5t431.5 -863.5q9 -15 9 -30q0 -18 -15 -33q-25 -26 -76 -33q-29 -5 -53 -5q-84 0 -117 56q-187 324 -291 534q-22 -2 -249 -8q-67 -1 -187 -1 q-95 -2 -149 -2l-268 -528q-32 -47 -93 -47q-32 0 -72 12q-48 14 -68 44q-9 15 -9 31zM598 750h155l129 -1h45q64 0 112 3q-102 223 -183 466q-130 -199 -172 -286.5t-86 -181.5zM636 1660q0 30 38 60q55 45 97 77q111 90 167 135q36 29 79 29q42 0 92 -26q42 -21 49 -52 q2 -6 2 -11q0 -30 -38 -60q-91 -71 -264 -212q-36 -29 -79 -29q-42 0 -92 26q-42 21 -49 52q-2 6 -2 11z" />
<glyph unicode="&#xc2;" d="M10 91q0 21 15 45l399 799q27 42 78 136q56 107 84 152q107 180 212 244q46 27 91 27q47 0 83 -27q90 -117 244.5 -502.5t431.5 -863.5q9 -15 9 -30q0 -18 -15 -33q-25 -26 -76 -33q-29 -5 -53 -5q-84 0 -117 56q-187 324 -291 534q-22 -2 -249 -8q-67 -1 -187 -1 q-95 -2 -149 -2l-268 -528q-32 -47 -93 -47q-32 0 -72 12q-48 14 -68 44q-9 15 -9 31zM421 1651q0 27 34 54q49 40 149 122q77 62 125 100q8 10 22 19q2 1 3 2q32 26 71 26h18q38 0 71 -26q1 -1 3 -2q14 -9 22 -19q48 -38 125 -100q99 -82 149 -122q34 -27 34 -54 q0 -5 -2 -10q-6 -28 -44 -47q-45 -23 -83 -23t-71 26q-109 89 -213 174q-104 -85 -214 -174q-32 -26 -71 -26q-37 0 -82 23q-38 19 -44 47q-2 5 -2 10zM598 750h155l129 -1h45q64 0 112 3q-102 223 -183 466q-130 -199 -172 -286.5t-86 -181.5z" />
<glyph unicode="&#xc3;" d="M10 91q0 21 15 45l399 799q27 42 78 136q56 107 84 152q107 180 212 244q46 27 91 27q47 0 83 -27q90 -117 244.5 -502.5t431.5 -863.5q9 -15 9 -30q0 -18 -15 -33q-25 -26 -76 -33q-29 -5 -53 -5q-84 0 -117 56q-187 324 -291 534q-22 -2 -249 -8q-67 -1 -187 -1 q-95 -2 -149 -2l-268 -528q-32 -47 -93 -47q-32 0 -72 12q-48 14 -68 44q-9 15 -9 31zM454 1624q0 9 2 17q32 150 103 215q50 47 115 47q26 0 53 -7q19 -6 133 -85q55 -23 90 -23q13 0 23 3q36 12 64 49q35 39 57 69q18 22 44 22q19 0 43 -12q23 -12 31 -31q2 -7 2 -13v-10 q0 -49 -26 -112q-30 -69 -85.5 -114.5t-119.5 -64.5q-10 -2 -21 -2q-42 0 -95 41q-22 18 -58 38q-85 48 -140 50q-8 0 -16 -3q-48 -18 -76 -91q-5 -28 -28 -40q-14 -8 -29 -8q-8 0 -17 2q-25 6 -38 26q-11 16 -11 37zM598 750h155l129 -1h45q64 0 112 3q-102 223 -183 466 q-130 -199 -172 -286.5t-86 -181.5z" />
<glyph unicode="&#xc4;" d="M10 91q0 21 15 45l399 799q27 42 78 136q56 107 84 152q107 180 212 244q46 27 91 27q47 0 83 -27q90 -117 244.5 -502.5t431.5 -863.5q9 -15 9 -30q0 -18 -15 -33q-25 -26 -76 -33q-29 -5 -53 -5q-84 0 -117 56q-187 324 -291 534q-22 -2 -249 -8q-67 -1 -187 -1 q-95 -2 -149 -2l-268 -528q-32 -47 -93 -47q-32 0 -72 12q-48 14 -68 44q-9 15 -9 31zM461 1731q0 14 6 32l12 25l10 27q33 79 117 79q22 0 50 -7q41 -8 74 -41q26 -26 26 -56q0 -15 -7 -31l-21 -52q-32 -82 -118 -82q-23 0 -47 7q-44 8 -77 42q-25 26 -25 57zM598 750h155 l129 -1h45q64 0 112 3q-102 223 -183 466q-130 -199 -172 -286.5t-86 -181.5zM943 1708l1 27l-1 29q0 85 77 118q21 9 48 14q13 3 27 3q28 0 58 -12q33 -14 45 -42q6 -13 6 -31l2 -56v-4q0 -85 -78 -117q-21 -9 -46 -13q-14 -3 -29 -3q-29 0 -58 12q-33 14 -45 42 q-6 14 -7 33z" />
<glyph unicode="&#xc5;" d="M10 91q0 21 15 45l399 799q27 42 78 136q56 107 84 152q107 180 212 244q46 27 91 27q47 0 83 -27q90 -117 244.5 -502.5t431.5 -863.5q9 -15 9 -30q0 -18 -15 -33q-25 -26 -76 -33q-29 -5 -53 -5q-84 0 -117 56q-187 324 -291 534q-22 -2 -249 -8q-67 -1 -187 -1 q-95 -2 -149 -2l-268 -528q-32 -47 -93 -47q-32 0 -72 12q-48 14 -68 44q-9 15 -9 31zM598 750h155l129 -1h45q64 0 112 3q-102 223 -183 466q-130 -199 -172 -286.5t-86 -181.5zM634 1660v14q0 83 61 146q59 62 152 87q11 3 19 5q10 2 21 2h22q78 0 139 -41q70 -46 84 -133 q2 -17 2 -34q0 -67 -47 -123q-57 -64 -148 -81q-37 -7 -73 -7q-64 0 -120 22q-106 41 -112 143zM822 1688q2 -32 24 -45q12 -8 27 -8q12 0 26 5q28 11 42 37q9 17 9 39q0 8 -1 16q-4 21 -16 39q-14 18 -26 18h-3q-35 -8 -59 -37q-23 -27 -23 -59v-5z" />
<glyph unicode="&#xc6;" horiz-adv-x="2600" d="M10 91q0 21 15 45l399 799q27 42 78 136q56 107 84 152q107 180 212 244q46 27 91 27q47 0 83 -27q90 -117 245 -502q87 -218 212 -464q14 102 32 230q31 324 63 647q7 78 130 85l815 56h12q48 0 78 -21t30 -57q-2 -33 -32 -60q-33 -29 -88 -32q-116 -9 -347 -24 q-229 -15 -345 -24q-7 -78 -22 -237q-15 -157 -24 -237q96 8 295 23q195 15 296 22h12q49 0 79 -21q29 -21 29 -55q0 -35 -30 -60q-33 -30 -90 -33q-101 -9 -305 -24t-306 -23q-49 -349 -66 -493q63 -12 147 -12q95 0 215 15q322 37 357 39h6q52 0 85 -24q29 -21 29 -54v-3 q0 -35 -30 -60q-33 -27 -90 -29q-84 -3 -230 -18q-174 -19 -234 -22q-70 -5 -135 -5q-111 0 -202 14q-27 -4 -50 -4q-84 0 -117 56q-2 3 -3 6q-10 10 -13 22q-176 305 -275 506q-22 -2 -249 -8q-67 -1 -187 -1q-95 -2 -149 -2l-268 -528q-32 -47 -93 -47q-32 0 -72 12 q-48 14 -68 44q-9 15 -9 31zM598 750h155l129 -1h45q64 0 112 3q-102 223 -183 466q-130 -199 -172 -286.5t-86 -181.5z" />
<glyph unicode="&#xc7;" horiz-adv-x="1448" d="M80 428q0 123 44 259q174 536 625 779q192 103 351 103q95 0 179 -37q117 -53 135 -174q3 -21 3 -44q0 -84 -45 -180q-29 -61 -114 -61q-23 0 -48 4q-53 9 -80 35q-18 18 -18 39q0 13 8 28q16 36 16 66q0 51 -43 90q-39 35 -83 35q-36 0 -76 -24q-84 -50 -123 -80 q-132 -103 -219 -216q-203 -262 -239 -501q-12 -76 -12 -141q0 -169 84 -244q60 -56 158 -56q61 0 136 23q98 28 288 127q32 17 68 17q51 0 112 -33q42 -23 48 -48v-8q0 -27 -43 -48q-251 -129 -449 -174q-22 -63 -23 -82v-2l19 -2q147 -19 153 -136v-19q0 -184 -190 -238 q-63 -18 -121 -18q-119 0 -221 74q-33 25 -33 49q0 5 2 10q6 25 42 43q43 23 82 23q36 0 66 -22q41 -31 75 -31q5 0 10 2q44 8 59 67q5 19 5 46v11q-115 9 -149 62q-20 27 -20 71q0 31 10 69q-143 9 -244 83q-147 108 -177 303q-8 50 -8 101z" />
<glyph unicode="&#xc8;" horiz-adv-x="1300" d="M80 98v8q5 60 83 625q31 324 63 647q7 78 130 85l815 56h12q48 0 78 -21t30 -57q-2 -33 -32 -60q-33 -29 -88 -32q-116 -9 -347 -24q-229 -15 -345 -24q-7 -78 -22 -237q-15 -157 -24 -237q96 8 295 23q195 15 296 22h12q49 0 79 -21q29 -21 29 -55q0 -35 -30 -60 q-33 -30 -90 -33q-101 -9 -305 -24t-306 -23q-49 -349 -66 -493q63 -12 147 -12q95 0 215 15q322 37 357 39h6q52 0 85 -24q29 -21 29 -54v-3q0 -35 -30 -60q-33 -27 -90 -29q-84 -3 -230 -18q-174 -19 -234 -22q-70 -5 -135 -5q-189 0 -322 42q-65 23 -65 66zM346 1891 q0 5 2 11q7 31 49 52q50 26 92 26q43 0 79 -29q56 -45 111 -95q111 -91 166 -136q38 -30 38 -60q0 -5 -2 -11q-7 -31 -49 -52q-50 -26 -92 -26q-43 0 -79 29q-173 141 -277 231q-38 30 -38 60z" />
<glyph unicode="&#xc9;" horiz-adv-x="1297" d="M80 98v8q5 60 83 625q31 324 63 647q7 78 130 85l815 56h12q48 0 78 -21t30 -57q-2 -33 -32 -60q-33 -29 -88 -32q-116 -9 -347 -24q-229 -15 -345 -24q-7 -78 -22 -237q-15 -157 -24 -237q96 8 295 23q195 15 296 22h12q49 0 79 -21q29 -21 29 -55q0 -35 -30 -60 q-33 -30 -90 -33q-101 -9 -305 -24t-306 -23q-49 -349 -66 -493q63 -12 147 -12q95 0 215 15q322 37 357 39h6q52 0 85 -24q29 -21 29 -54v-3q0 -35 -30 -60q-33 -27 -90 -29q-84 -3 -230 -18q-174 -19 -234 -22q-70 -5 -135 -5q-189 0 -322 42q-65 23 -65 66zM488 1660 q0 30 38 60q55 45 97 77q111 90 167 135q36 29 79 29q42 0 92 -26q42 -21 49 -52q2 -6 2 -11q0 -30 -38 -60q-91 -71 -264 -212q-36 -29 -79 -29q-42 0 -92 26q-42 21 -49 52q-2 6 -2 11z" />
<glyph unicode="&#xca;" horiz-adv-x="1300" d="M80 98v8q5 60 83 625q31 324 63 647q7 78 130 85l815 56h12q48 0 78 -21t30 -57q-2 -33 -32 -60q-33 -29 -88 -32q-116 -9 -347 -24q-229 -15 -345 -24q-7 -78 -22 -237q-15 -157 -24 -237q96 8 295 23q195 15 296 22h12q49 0 79 -21q29 -21 29 -55q0 -35 -30 -60 q-33 -30 -90 -33q-101 -9 -305 -24t-306 -23q-49 -349 -66 -493q63 -12 147 -12q95 0 215 15q322 37 357 39h6q52 0 85 -24q29 -21 29 -54v-3q0 -35 -30 -60q-33 -27 -90 -29q-84 -3 -230 -18q-174 -19 -234 -22q-70 -5 -135 -5q-189 0 -322 42q-65 23 -65 66zM384 1651 q0 27 34 54q49 40 149 122q77 62 125 100q8 10 22 19q2 1 3 2q32 26 71 26h18q38 0 71 -26q1 -1 3 -2q14 -9 22 -19q48 -38 125 -100q99 -82 149 -122q34 -27 34 -54q0 -5 -2 -10q-6 -28 -44 -47q-45 -23 -83 -23t-71 26q-109 89 -213 174q-104 -85 -214 -174 q-32 -26 -71 -26q-37 0 -82 23q-38 19 -44 47q-2 5 -2 10z" />
<glyph unicode="&#xcb;" horiz-adv-x="1370" d="M80 98v8q5 60 83 625q31 324 63 647q7 78 130 85l815 56h12q48 0 78 -21t30 -57q-2 -33 -32 -60q-33 -29 -88 -32q-116 -9 -347 -24q-229 -15 -345 -24q-7 -78 -22 -237q-15 -157 -24 -237q96 8 295 23q195 15 296 22h12q49 0 79 -21q29 -21 29 -55q0 -35 -30 -60 q-33 -30 -90 -33q-101 -9 -305 -24t-306 -23q-49 -349 -66 -493q63 -12 147 -12q95 0 215 15q322 37 357 39h6q52 0 85 -24q29 -21 29 -54v-3q0 -35 -30 -60q-33 -27 -90 -29q-84 -3 -230 -18q-174 -19 -234 -22q-70 -5 -135 -5q-189 0 -322 42q-65 23 -65 66zM446 1731 q0 14 6 32l12 25l10 27q33 79 117 79q22 0 50 -7q41 -8 74 -41q26 -26 26 -56q0 -15 -7 -31l-21 -52q-32 -82 -118 -82q-23 0 -47 7q-44 8 -77 42q-25 26 -25 57zM928 1708l1 27l-1 29q0 85 77 118q21 9 48 14q13 3 27 3q28 0 58 -12q33 -14 45 -42q6 -13 6 -31l2 -56v-4 q0 -85 -78 -117q-21 -9 -46 -13q-14 -3 -29 -3q-29 0 -58 12q-33 14 -45 42q-6 14 -7 33z" />
<glyph unicode="&#xcc;" horiz-adv-x="557" d="M-55 1891q0 5 2 11q7 31 49 52q50 26 92 26q43 0 79 -29q56 -45 111 -95q111 -91 166 -136q38 -30 38 -60q0 -5 -2 -11q-7 -31 -49 -52q-50 -26 -92 -26q-43 0 -79 29q-173 141 -277 231q-38 30 -38 60zM80 78v8q104 1063 146 1272q18 84 144 84h4q53 -2 84 -23 q30 -19 30 -49q0 -6 -1 -12q-42 -209 -146 -1272q-4 -41 -48 -65q-37 -21 -91 -21q-53 0 -87 23q-35 21 -35 55z" />
<glyph unicode="&#xcd;" horiz-adv-x="568" d="M80 78v8q104 1063 146 1272q18 84 144 84h4q53 -2 84 -23q30 -19 30 -49q0 -6 -1 -12q-42 -209 -146 -1272q-4 -41 -48 -65q-37 -21 -91 -21q-53 0 -87 23q-35 21 -35 55zM86 1660q0 30 38 60q55 45 97 77q111 90 167 135q36 29 79 29q42 0 92 -26q42 -21 49 -52 q2 -6 2 -11q0 -30 -38 -60q-91 -71 -264 -212q-36 -29 -79 -29q-42 0 -92 26q-42 21 -49 52q-2 6 -2 11z" />
<glyph unicode="&#xce;" horiz-adv-x="577" d="M4 1651q0 27 34 54q50 40 149 122q77 62 125 100q8 10 22 19q2 1 3 2q32 26 71 26h18q39 0 71 -26l3 -3q14 -8 22 -18q48 -38 125 -100q99 -82 149 -122q34 -27 34 -54q0 -5 -2 -10q-6 -28 -44 -47q-45 -23 -82 -23q-39 0 -71 26q-110 89 -213 173q-105 -84 -215 -173 q-32 -26 -70 -26t-83 23q-38 19 -44 47q-2 5 -2 10zM80 78v8q104 1063 146 1272q18 84 144 84h4q53 -2 84 -23q30 -19 30 -49q0 -6 -1 -12q-42 -209 -146 -1272q-4 -41 -48 -65q-37 -21 -91 -21q-53 0 -87 23q-35 21 -35 55z" />
<glyph unicode="&#xcf;" horiz-adv-x="607" d="M1 1731q0 15 6 32l11 26l11 26q33 79 116 79q23 0 50 -6q41 -9 75 -41q25 -27 25 -56q0 -15 -7 -32l-20 -52q-32 -81 -118 -81q-23 0 -48 6q-44 9 -77 43q-24 25 -24 56zM80 78v8q104 1063 146 1272q18 84 144 84h4q53 -2 84 -23q30 -19 30 -49q0 -6 -1 -12 q-42 -209 -146 -1272q-4 -41 -48 -65q-37 -21 -91 -21q-53 0 -87 23q-35 21 -35 55zM483 1708v56q0 86 76 118q21 9 49 14q14 3 28 3q27 0 56 -11q34 -15 46 -42q5 -14 5 -32l2 -55v-4q0 -85 -77 -118q-21 -9 -46 -13q-14 -3 -28 -3q-30 0 -60 13q-32 14 -44 42q-6 14 -7 32 z" />
<glyph unicode="&#xd0;" horiz-adv-x="1582" d="M10 728q0 42 48 66q38 18 83 18h114q51 372 61 555q3 43 48 66q36 19 83 19h13q132 11 243 11q150 0 260 -20q280 -48 435 -226q159 -183 159 -407q0 -60 -12 -123q-68 -376 -471 -559q-282 -128 -627 -128q-62 0 -126 5q-129 7 -131 84v15q0 214 42 538h-91 q-45 0 -83 20q-48 24 -48 66zM454 171q296 6 506 114q253 129 319 384q21 83 21 155q0 160 -100 274q-170 197 -540 197q-42 0 -89 -3q-13 -173 -55 -480h114q46 0 84 -18q46 -24 46 -66t-46 -66q-38 -20 -84 -20h-137q-34 -273 -39 -471z" />
<glyph unicode="&#xd1;" horiz-adv-x="1624" d="M80 87q3 698 18 938q17 285 56 366q45 94 126 94q37 0 81 -19q115 -50 187 -167q540 -873 575 -915q62 -79 64 -79l-1 3q10 -17 10 -39q0 -12 -3 -27q26 87 35 157q22 183 33 386q4 90 10 307q6 198 12 309q3 42 45 65q38 22 92 22q52 -1 88 -22q36 -23 36 -59v-6 q-6 -109 -13 -342q-6 -225 -14 -343q-1 -17 -6 -147q-3 -104 -10 -173q-23 -208 -101 -295q-67 -75 -150 -75q-123 0 -280 171q-101 108 -314 444q-93 145 -271 462q-6 12 -18 34q-8 -88 -11 -162q-12 -286 -15 -888q0 -40 -42 -64q-36 -23 -90 -23q-52 0 -88 23 q-41 24 -41 64zM432 1624q0 9 2 17q32 150 103 215q50 47 115 47q26 0 53 -7q19 -6 133 -85q55 -23 90 -23q13 0 23 3q36 12 64 49q35 39 57 69q18 22 44 22q19 0 43 -12q23 -12 31 -31q2 -7 2 -13v-10q0 -49 -26 -112q-30 -69 -85.5 -114.5t-119.5 -64.5q-10 -2 -21 -2 q-42 0 -95 41q-22 18 -58 38q-85 48 -140 50q-8 0 -16 -3q-48 -18 -76 -91q-5 -28 -28 -40q-14 -8 -29 -8q-8 0 -17 2q-25 6 -38 26q-11 16 -11 37z" />
<glyph unicode="&#xd2;" horiz-adv-x="1693" d="M80 494q0 75 14 158q49 297 223 531q186 249 456 337q20 9 41 14q15 3 31 4q86 15 165 15q228 0 396 -120q207 -147 207 -409q0 -51 -7 -107q-53 -370 -324 -637q-270 -269 -642 -314q-45 -6 -87 -6q-245 0 -372 186q-101 146 -101 348zM340 482q0 -79 15 -151 q43 -201 202 -201q27 0 59 6q268 52 474 258q210 210 249 477q9 63 9 118q0 176 -86 281q-91 112 -256 112q-57 0 -123 -13q-189 -51 -335 -258q-124 -176 -178 -395q-30 -123 -30 -234zM650 1891q0 5 2 11q7 31 49 52q50 26 92 26q43 0 79 -29q56 -45 111 -95 q111 -91 166 -136q38 -30 38 -60q0 -5 -2 -11q-7 -31 -49 -52q-50 -26 -92 -26q-43 0 -79 29q-173 141 -277 231q-38 30 -38 60z" />
<glyph unicode="&#xd3;" horiz-adv-x="1693" d="M80 494q0 75 14 158q49 297 223 531q186 249 456 337q20 9 41 14q15 3 31 4q86 15 165 15q228 0 396 -120q207 -147 207 -409q0 -51 -7 -107q-53 -370 -324 -637q-270 -269 -642 -314q-45 -6 -87 -6q-245 0 -372 186q-101 146 -101 348zM340 482q0 -79 15 -151 q43 -201 202 -201q27 0 59 6q268 52 474 258q210 210 249 477q9 63 9 118q0 176 -86 281q-91 112 -256 112q-57 0 -123 -13q-189 -51 -335 -258q-124 -176 -178 -395q-30 -123 -30 -234zM710 1659q0 30 38 60q55 45 97 77q111 90 167 135q36 29 79 29q42 0 92 -26 q42 -21 49 -52q2 -6 2 -11q0 -30 -38 -60q-91 -71 -264 -212q-36 -29 -79 -29q-42 0 -92 26q-42 21 -49 52q-2 6 -2 11z" />
<glyph unicode="&#xd4;" horiz-adv-x="1693" d="M80 494q0 75 14 158q49 297 223 531q186 249 456 337q20 9 41 14q15 3 31 4q86 15 165 15q228 0 396 -120q207 -147 207 -409q0 -51 -7 -107q-53 -370 -324 -637q-270 -269 -642 -314q-45 -6 -87 -6q-245 0 -372 186q-101 146 -101 348zM340 482q0 -79 15 -151 q43 -201 202 -201q27 0 59 6q268 52 474 258q210 210 249 477q9 63 9 118q0 176 -86 281q-91 112 -256 112q-57 0 -123 -13q-189 -51 -335 -258q-124 -176 -178 -395q-30 -123 -30 -234zM615 1657q0 27 34 54q49 40 149 122q77 62 125 100q8 10 22 19q2 1 3 2q32 26 71 26 h18q38 0 71 -26q1 -1 3 -2q14 -9 22 -19q48 -38 125 -100q99 -82 149 -122q34 -27 34 -54q0 -5 -2 -10q-6 -28 -44 -47q-45 -23 -83 -23t-71 26q-109 89 -213 174q-104 -85 -214 -174q-32 -26 -71 -26q-37 0 -82 23q-38 19 -44 47q-2 5 -2 10z" />
<glyph unicode="&#xd5;" horiz-adv-x="1693" d="M80 494q0 75 14 158q49 297 223 531q186 249 456 337q20 9 41 14q15 3 31 4q86 15 165 15q228 0 396 -120q207 -147 207 -409q0 -51 -7 -107q-53 -370 -324 -637q-270 -269 -642 -314q-45 -6 -87 -6q-245 0 -372 186q-101 146 -101 348zM340 482q0 -79 15 -151 q43 -201 202 -201q27 0 59 6q268 52 474 258q210 210 249 477q9 63 9 118q0 176 -86 281q-91 112 -256 112q-57 0 -123 -13q-189 -51 -335 -258q-124 -176 -178 -395q-30 -123 -30 -234zM733 1624q0 9 2 17q32 150 103 215q50 47 115 47q26 0 53 -7q19 -6 133 -85 q55 -23 90 -23q13 0 23 3q36 12 64 49q35 39 57 69q18 22 44 22q19 0 43 -12q23 -12 31 -31q2 -7 2 -13v-10q0 -49 -26 -112q-30 -69 -85.5 -114.5t-119.5 -64.5q-10 -2 -21 -2q-42 0 -95 41q-22 18 -58 38q-85 48 -140 50q-8 0 -16 -3q-48 -18 -76 -91q-5 -28 -28 -40 q-14 -8 -29 -8q-8 0 -17 2q-25 6 -38 26q-11 16 -11 37z" />
<glyph unicode="&#xd6;" horiz-adv-x="1693" d="M80 494q0 75 14 158q49 297 223 531q186 249 456 337q20 9 41 14q15 3 31 4q86 15 165 15q228 0 396 -120q207 -147 207 -409q0 -51 -7 -107q-53 -370 -324 -637q-270 -269 -642 -314q-45 -6 -87 -6q-245 0 -372 186q-101 146 -101 348zM340 482q0 -79 15 -151 q43 -201 202 -201q27 0 59 6q268 52 474 258q210 210 249 477q9 63 9 118q0 176 -86 281q-91 112 -256 112q-57 0 -123 -13q-189 -51 -335 -258q-124 -176 -178 -395q-30 -123 -30 -234zM718 1731q0 14 6 32l12 25l10 27q33 79 117 79q22 0 50 -7q41 -8 74 -41 q26 -26 26 -56q0 -15 -7 -31l-21 -52q-32 -82 -118 -82q-23 0 -47 7q-44 8 -77 42q-25 26 -25 57zM1200 1708l1 27l-1 29q0 85 77 118q21 9 48 14q13 3 27 3q28 0 58 -12q33 -14 45 -42q6 -13 6 -31l2 -56v-4q0 -85 -78 -117q-21 -9 -46 -13q-14 -3 -29 -3q-29 0 -58 12 q-33 14 -45 42q-6 14 -7 33z" />
<glyph unicode="&#xd7;" horiz-adv-x="1607" d="M10 357q0 29 41 56q226 154 592 490q-262 221 -519 420q-37 30 -37 60q0 5 1 11q6 30 50 51q51 25 93 25q43 0 78 -27q234 -181 490 -396q270 245 459 381q36 27 78 27q44 0 95 -27q43 -22 49 -52q2 -5 2 -11q0 -28 -39 -57q-194 -138 -479 -400q333 -287 612 -561 q23 -23 23 -44q0 -10 -6 -21q-17 -27 -65 -42q-46 -15 -84 -15q-58 0 -94 36q-242 240 -543 503q-348 -320 -572 -471q-34 -24 -76 -24q-45 0 -99 28q-42 21 -48 51q-2 5 -2 9z" />
<glyph unicode="&#xd8;" horiz-adv-x="1738" d="M80 -323q0 14 5 27q70 198 169 408q-129 152 -129 383q0 75 14 159q49 297 225 531q186 249 454 337q20 9 42 14q14 3 32 4q75 12 148 12q86 0 168 -16q89 97 165 171q36 36 93 36q38 0 84 -15q50 -15 65 -42q6 -11 6 -21q0 -21 -23 -44q-78 -76 -166 -172 q226 -147 226 -422q0 -51 -7 -108q-53 -370 -323 -637q-271 -269 -643 -314q-42 -6 -83 -6q-72 0 -136 18q-77 -169 -131 -321q-12 -36 -60 -52q-28 -11 -61 -11q-17 0 -33 3q-53 8 -81 35q-20 19 -20 43zM386 486q0 -53 6 -102q294 543 680 999h-23q-58 0 -120 -12 q-189 -51 -336 -258q-123 -176 -177 -395q-30 -118 -30 -232zM542 142q32 -10 66 -10q26 0 54 6q267 52 473 258q210 210 249 477q9 63 9 120q0 189 -102 297q-443 -527 -749 -1148z" />
<glyph unicode="&#xd9;" horiz-adv-x="1352" d="M80 797q0 258 63 516q15 84 141 84h5q52 0 85 -23q32 -18 32 -49q0 -6 -2 -12q-67 -273 -67 -513q0 -208 48 -369q30 -106 78 -190q63 -113 124 -113q6 0 12 2q185 36 311 396q102 272 102 585q0 103 -11 217v6q0 36 36 58q36 21 89 53q54 0 91 -51q42 -24 45 -66 q11 -117 11 -226q0 -271 -78 -540q-155 -572 -578 -600q-21 -2 -40 -2q-408 0 -482 588q-15 128 -15 249zM337 1891q0 5 2 11q7 31 49 52q50 26 92 26q43 0 79 -29q56 -45 111 -95q111 -91 166 -136q38 -30 38 -60q0 -5 -2 -11q-7 -31 -49 -52q-50 -26 -92 -26q-43 0 -79 29 q-173 141 -277 231q-38 30 -38 60z" />
<glyph unicode="&#xda;" horiz-adv-x="1352" d="M80 797q0 258 63 516q15 84 141 84h5q52 0 85 -23q32 -18 32 -49q0 -6 -2 -12q-67 -273 -67 -513q0 -208 48 -369q30 -106 78 -190q63 -113 124 -113q6 0 12 2q185 36 311 396q102 272 102 585q0 103 -11 217v6q0 36 36 58q36 21 89 53q54 0 91 -51q42 -24 45 -66 q11 -117 11 -226q0 -271 -78 -540q-155 -572 -578 -600q-21 -2 -40 -2q-408 0 -482 588q-15 128 -15 249zM479 1660q0 30 38 60q55 45 97 77q111 90 167 135q36 29 79 29q42 0 92 -26q42 -21 49 -52q2 -6 2 -11q0 -30 -38 -60q-91 -71 -264 -212q-36 -29 -79 -29 q-42 0 -92 26q-42 21 -49 52q-2 6 -2 11z" />
<glyph unicode="&#xdb;" horiz-adv-x="1352" d="M80 797q0 258 63 516q15 84 141 84h5q52 0 85 -23q32 -18 32 -49q0 -6 -2 -12q-67 -273 -67 -513q0 -208 48 -369q30 -106 78 -190q63 -113 124 -113q6 0 12 2q185 36 311 396q102 272 102 585q0 103 -11 217v6q0 36 36 58q36 21 89 53q54 0 91 -51q42 -24 45 -66 q11 -117 11 -226q0 -271 -78 -540q-155 -572 -578 -600q-21 -2 -40 -2q-408 0 -482 588q-15 128 -15 249zM264 1651q0 27 34 54q49 40 149 122q77 62 125 100q8 10 22 19q2 1 3 2q32 26 71 26h18q38 0 71 -26q1 -1 3 -2q14 -9 22 -19q48 -38 125 -100q99 -82 149 -122 q34 -27 34 -54q0 -5 -2 -10q-6 -28 -44 -47q-45 -23 -83 -23t-71 26q-109 89 -213 174q-104 -85 -214 -174q-32 -26 -71 -26q-37 0 -82 23q-38 19 -44 47q-2 5 -2 10z" />
<glyph unicode="&#xdc;" horiz-adv-x="1352" d="M80 797q0 258 63 516q15 84 141 84h5q52 0 85 -23q32 -18 32 -49q0 -6 -2 -12q-67 -273 -67 -513q0 -208 48 -369q30 -106 78 -190q63 -113 124 -113q6 0 12 2q185 36 311 396q102 272 102 585q0 103 -11 217v6q0 36 36 58q36 21 89 53q54 0 91 -51q42 -24 45 -66 q11 -117 11 -226q0 -271 -78 -540q-155 -572 -578 -600q-21 -2 -40 -2q-408 0 -482 588q-15 128 -15 249zM304 1731q0 14 6 32l12 25l10 27q33 79 117 79q22 0 50 -7q41 -8 74 -41q26 -26 26 -56q0 -15 -7 -31l-21 -52q-32 -82 -118 -82q-23 0 -47 7q-44 8 -77 42 q-25 26 -25 57zM786 1708l1 27l-1 29q0 85 77 118q21 9 48 14q13 3 27 3q28 0 58 -12q33 -14 45 -42q6 -13 6 -31l2 -56v-4q0 -85 -78 -117q-21 -9 -46 -13q-14 -3 -29 -3q-29 0 -58 12q-33 14 -45 42q-6 14 -7 33z" />
<glyph unicode="&#xdd;" horiz-adv-x="1465" d="M10 1400q0 12 6 22q15 29 65 44q45 13 81 13q58 0 94 -36q76 -88 237 -264q161 -177 235 -264q34 27 171 148.5t299 378.5q33 45 94 45q32 0 72 -12q50 -15 68 -44q9 -13 9 -30q0 -21 -18 -45q-56 -111 -252 -343q-119 -131 -223 -222q-7 -8 -25 -26q-18 -21 -29 -28 q-7 -12 -25 -17q-15 -70 -40 -245t-52 -389q-4 -41 -48 -65q-39 -21 -93 -21q-52 2 -87 23q-33 21 -33 55v8q14 108 41 322q27 216 40 324l-566 624q-21 24 -21 44zM528 1660q0 30 38 60q55 45 97 77q111 90 167 135q36 29 79 29q42 0 92 -26q42 -21 49 -52q2 -6 2 -11 q0 -30 -38 -60q-91 -71 -264 -212q-36 -29 -79 -29q-42 0 -92 26q-42 21 -49 52q-2 6 -2 11z" />
<glyph unicode="&#xde;" horiz-adv-x="1511" d="M80 -29q0 6 2 12q120 630 214 1548q3 42 47 64q36 21 85 21h6q54 0 89 -21q34 -22 34 -58v-6q-4 -41 -27 -245q456 -19 666 -108q349 -106 349 -292q0 -53 -27 -110q-121 -261 -437 -408q-306 -115 -695 -139q-34 -198 -43 -246q-17 -83 -138 -83h-9q-53 0 -86 21 q-30 20 -30 50zM415 401q298 26 531 107q224 108 304 280q16 36 16 68q0 127 -187 196q-216 56 -567 66q-45 -381 -97 -717z" />
<glyph unicode="&#xdf;" horiz-adv-x="1131" d="M-61 -206q0 -5 2 -11q7 -28 47 -49q47 -25 87 -25q41 0 76 28q220 174 237 393q58 -103 180 -119q23 -3 47 -3q89 0 188 45q124 55 209 157q91 109 101 227v15q0 107 -126 208q-35 29 -117 85q-73 50 -72.5 61.5t154.5 201.5q165 207 172 265q2 13 2 25q0 109 -114 175 q-98 57 -214 57q-15 0 -31 -1q-293 -20 -439 -268q-97 -163 -162 -726q-1 -15 -18 -218q-14 -146 -31 -241v-2q0 -110 -142 -223q-36 -29 -36 -57zM415 331q76 729 151 887q9 12 23 35q15 21 22 33q43 60 97 60q69 0 155 -97q-23 -60 -175 -212q-13 -13 -48 -43 q-40 -31 -59 -48q-69 -65 -69 -118q0 -65 123 -157q163 -119 185 -142q46 -46 46 -100q0 -17 -5 -35q-15 -63 -81 -118q-60 -50 -119 -59q-12 -1 -20 -1q-43 0 -49 38q-8 48 -67 69q-33 13 -65 13q-22 0 -45 -5z" />
<glyph unicode="&#xe0;" horiz-adv-x="975" d="M30 266q0 37 7 80q29 180 138 327q122 164 281 248q101 54 190 54q87 0 161 -51q61 -41 87 -143q16 -60 16 -117q0 -27 -4 -54q-7 -43 -28 -133q-20 -82 -24 -125q-2 -16 -2 -31q0 -117 88 -205q19 -19 19 -37q0 -10 -5 -19q-14 -23 -56 -36q-39 -12 -71 -12 q-51 0 -82 31q-52 52 -89 123q-176 -150 -342 -150q-78 0 -154 33q-130 57 -130 217zM260 292q0 -113 65 -113q35 0 89 33q132 81 212 210q58 136 58 238q0 29 -5 55q-15 85 -35 98q-6 4 -14 4q-27 0 -81 -38q-120 -84 -199 -205q-87 -135 -90 -269v-13zM275 1335q0 5 2 11 q7 31 49 52q50 26 92 26q43 0 79 -29q56 -45 111 -95q111 -91 166 -136q38 -30 38 -60q0 -5 -2 -11q-7 -31 -49 -52q-50 -26 -92 -26q-43 0 -79 29q-173 141 -277 231q-38 30 -38 60z" />
<glyph unicode="&#xe1;" horiz-adv-x="975" d="M30 266q0 37 7 80q29 180 138 327q122 164 281 248q101 54 190 54q87 0 161 -51q61 -41 87 -143q16 -60 16 -117q0 -27 -4 -54q-7 -43 -28 -133q-20 -82 -24 -125q-2 -16 -2 -31q0 -117 88 -205q19 -19 19 -37q0 -10 -5 -19q-14 -23 -56 -36q-39 -12 -71 -12 q-51 0 -82 31q-52 52 -89 123q-176 -150 -342 -150q-78 0 -154 33q-130 57 -130 217zM260 292q0 -113 65 -113q35 0 89 33q132 81 212 210q58 136 58 238q0 29 -5 55q-15 85 -35 98q-6 4 -14 4q-27 0 -81 -38q-120 -84 -199 -205q-87 -135 -90 -269v-13zM320 1093 q0 30 38 60q55 45 97 77q111 90 167 135q36 29 79 29q42 0 92 -26q42 -21 49 -52q2 -6 2 -11q0 -30 -38 -60q-91 -71 -264 -212q-36 -29 -79 -29q-42 0 -92 26q-42 21 -49 52q-2 6 -2 11z" />
<glyph unicode="&#xe2;" horiz-adv-x="975" d="M30 266q0 37 7 80q29 180 138 327q122 164 281 248q101 54 190 54q87 0 161 -51q61 -41 87 -143q16 -60 16 -117q0 -27 -4 -54q-7 -43 -28 -133q-20 -82 -24 -125q-2 -16 -2 -31q0 -117 88 -205q19 -19 19 -37q0 -10 -5 -19q-14 -23 -56 -36q-39 -12 -71 -12 q-51 0 -82 31q-52 52 -89 123q-176 -150 -342 -150q-78 0 -154 33q-130 57 -130 217zM221 1091q0 27 34 54q49 40 149 122q77 62 125 100q8 10 22 19q2 1 3 2q32 26 71 26h18q38 0 71 -26q1 -1 3 -2q14 -9 22 -19q48 -38 125 -100q99 -82 149 -122q34 -27 34 -54 q0 -5 -2 -10q-6 -28 -44 -47q-45 -23 -83 -23t-71 26q-109 89 -213 174q-104 -85 -214 -174q-32 -26 -71 -26q-37 0 -82 23q-38 19 -44 47q-2 5 -2 10zM260 292q0 -113 65 -113q35 0 89 33q132 81 212 210q58 136 58 238q0 29 -5 55q-15 85 -35 98q-6 4 -14 4q-27 0 -81 -38 q-120 -84 -199 -205q-87 -135 -90 -269v-13z" />
<glyph unicode="&#xe3;" horiz-adv-x="975" d="M30 266q0 37 7 80q29 180 138 327q122 164 281 248q101 54 190 54q87 0 161 -51q61 -41 87 -143q16 -60 16 -117q0 -27 -4 -54q-7 -43 -28 -133q-20 -82 -24 -125q-2 -16 -2 -31q0 -117 88 -205q19 -19 19 -37q0 -10 -5 -19q-14 -23 -56 -36q-39 -12 -71 -12 q-51 0 -82 31q-52 52 -89 123q-176 -150 -342 -150q-78 0 -154 33q-130 57 -130 217zM260 292q0 -113 65 -113q35 0 89 33q132 81 212 210q58 136 58 238q0 29 -5 55q-15 85 -35 98q-6 4 -14 4q-27 0 -81 -38q-120 -84 -199 -205q-87 -135 -90 -269v-13zM281 1081q0 9 2 17 q32 150 103 215q50 47 115 47q26 0 53 -7q19 -6 133 -85q55 -23 90 -23q13 0 23 3q36 12 64 49q35 39 57 69q18 22 44 22q19 0 43 -12q23 -12 31 -31q2 -7 2 -13v-10q0 -49 -26 -112q-30 -69 -85.5 -114.5t-119.5 -64.5q-10 -2 -21 -2q-42 0 -95 41q-22 18 -58 38 q-85 48 -140 50q-8 0 -16 -3q-48 -18 -76 -91q-5 -28 -28 -40q-14 -8 -29 -8q-8 0 -17 2q-25 6 -38 26q-11 16 -11 37z" />
<glyph unicode="&#xe4;" horiz-adv-x="975" d="M30 266q0 37 7 80q29 180 138 327q122 164 281 248q101 54 190 54q87 0 161 -51q61 -41 87 -143q16 -60 16 -117q0 -27 -4 -54q-7 -43 -28 -133q-20 -82 -24 -125q-2 -16 -2 -31q0 -117 88 -205q19 -19 19 -37q0 -10 -5 -19q-14 -23 -56 -36q-39 -12 -71 -12 q-51 0 -82 31q-52 52 -89 123q-176 -150 -342 -150q-78 0 -154 33q-130 57 -130 217zM254 1136q0 14 6 32l12 25l10 27q33 79 117 79q22 0 50 -7q41 -8 74 -41q26 -26 26 -56q0 -15 -7 -31l-21 -52q-32 -82 -118 -82q-23 0 -47 7q-44 8 -77 42q-25 26 -25 57zM260 292 q0 -113 65 -113q35 0 89 33q132 81 212 210q58 136 58 238q0 29 -5 55q-15 85 -35 98q-6 4 -14 4q-27 0 -81 -38q-120 -84 -199 -205q-87 -135 -90 -269v-13zM736 1113l1 27l-1 29q0 85 77 118q21 9 48 14q13 3 27 3q28 0 58 -12q33 -14 45 -42q6 -13 6 -31l2 -56v-4 q0 -85 -78 -117q-21 -9 -46 -13q-14 -3 -29 -3q-29 0 -58 12q-33 14 -45 42q-6 14 -7 33z" />
<glyph unicode="&#xe5;" horiz-adv-x="1001" d="M12 266q0 37 7 80q29 180 138 327q122 164 281 248q101 54 190 54q87 0 161 -51q61 -41 87 -143q16 -60 16 -117q0 -27 -4 -54q-7 -43 -28 -133q-20 -82 -24 -125q-2 -16 -2 -31q0 -117 88 -205q19 -19 19 -37q0 -10 -5 -19q-14 -23 -56 -36q-39 -12 -71 -12 q-51 0 -82 31q-52 52 -89 123q-176 -150 -342 -150q-78 0 -154 33q-130 57 -130 217zM242 292q0 -113 65 -113q35 0 89 33q132 81 212 210q58 136 58 238q0 29 -5 55q-15 85 -35 98q-6 4 -14 4q-27 0 -81 -38q-120 -84 -199 -205q-87 -135 -90 -269v-13zM530 1207v14 q0 83 61 146q59 62 152 87q11 3 19 5q10 2 21 2h22q78 0 139 -41q70 -46 84 -133q2 -17 2 -34q0 -67 -47 -123q-57 -64 -148 -81q-37 -7 -73 -7q-64 0 -120 22q-106 41 -112 143zM718 1235q2 -32 24 -45q12 -8 27 -8q12 0 26 5q28 11 42 37q9 17 9 39q0 8 -1 16 q-4 21 -16 39q-14 18 -26 18h-3q-35 -8 -59 -37q-23 -27 -23 -59v-5z" />
<glyph unicode="&#xe6;" horiz-adv-x="1800" d="M80 521q0 73 18 148q47 209 189 351q143 143 318 143q21 0 44 -2q177 -18 276 -190l15 18h-2q171 216 426 226h14q79 0 153 -48q87 -57 87 -141v-3q0 -190 -209 -349q-181 -140 -402 -180q-9 -48 -9 -89q0 -99 53 -151q45 -44 103 -44q69 0 159 59q69 46 219 195 q36 36 93 36q38 0 84 -15q50 -15 65 -42q6 -11 6 -21q0 -21 -23 -44q-340 -337 -621 -337q-102 0 -195 43q-7 -40 -51 -64q-40 -20 -93 -20q-52 0 -87 23q-31 19 -31 51q0 4 1 10q0 5 2 12q1 8 1 11q-100 -47 -207 -47q-51 0 -102 11q-180 34 -255 235q-39 105 -39 215z M337 491q0 -159 90 -239q33 -28 69 -28q60 0 127 76q77 90 123 213q3 20 3 26q5 57 5 108q0 264 -137 342q-13 7 -27 7q-57 0 -132 -117q-78 -121 -97 -204q-24 -102 -24 -184zM1067 701q209 88 266 222q21 48 21 75q0 31 -32 31h-3q-58 -3 -120 -81q-90 -114 -129 -237 q0 -1 -3 -10z" />
<glyph unicode="&#xe7;" horiz-adv-x="898" d="M50 325q0 84 30 175q52 159 149 290q117 158 252 200q58 18 107 18q66 0 117 -32q89 -57 106 -196v-7q0 -29 -29 -48q-29 -18 -75 -19q-46 0 -79 18q-38 20 -42 56l-12 47q-1 5 -1 9q0 14 9 21q-25 -13 -35 -21q-59 -46 -104 -103q-122 -157 -154 -301q-17 -72 -17 -127 q0 -91 46 -133q32 -29 77 -29q103 0 278 153q31 27 80 27q33 0 75 -13t55 -36q5 -8 5 -16q0 -18 -21 -36q-154 -135 -310 -190q-21 -8 -42 -13q0 -8 -3 -16q-17 -50 -18 -66v-1l14 -2q114 -14 119 -105v-14q0 -142 -147 -184q-49 -14 -93 -14q-92 0 -171 57q-25 20 -25 38 q0 4 1 8q5 19 32 33q34 18 64 18q28 0 51 -17q31 -24 58 -24q3 0 7 1q34 7 46 52q4 15 4 36v8q-89 7 -115 48q-16 21 -16 55q0 30 12 71q-68 8 -131 39q-119 59 -146 202q-8 41 -8 83z" />
<glyph unicode="&#xe8;" horiz-adv-x="851" d="M41 325q0 52 10 112q39 225 161 379q148 186 368 196h12q68 0 131 -42q75 -49 75 -121v-2q0 -165 -179 -302q-156 -120 -346 -154q-8 -43 -8 -78q0 -85 45 -129q38 -37 89 -37q60 0 137 50q59 40 188 168q26 25 57 25t68 -24q36 -25 49 -48q6 -9 6 -19q0 -18 -20 -37 q-264 -265 -493 -265q-120 0 -230 72q-120 78 -120 256zM114 1390q0 5 2 11q7 31 49 52q50 26 92 26q43 0 79 -29q56 -45 111 -95q111 -91 166 -136q38 -30 38 -60q0 -5 -2 -11q-7 -31 -49 -52q-50 -26 -92 -26q-43 0 -79 29q-173 141 -277 231q-38 30 -38 60zM323 568 q180 77 230 192q18 41 18 64q0 28 -28 28h-2q-50 -3 -103 -70q-79 -98 -112 -204z" />
<glyph unicode="&#xe9;" horiz-adv-x="851" d="M41 325q0 52 10 112q39 225 161 379q148 186 368 196h12q68 0 131 -42q75 -49 75 -121v-2q0 -165 -179 -302q-156 -120 -346 -154q-8 -43 -8 -78q0 -85 45 -129q38 -37 89 -37q60 0 137 50q59 40 188 168q26 25 57 25t68 -24q36 -25 49 -48q6 -9 6 -19q0 -18 -20 -37 q-264 -265 -493 -265q-120 0 -230 72q-120 78 -120 256zM297 1145q0 30 38 60q55 45 97 77q111 90 167 135q36 29 79 29q42 0 92 -26q42 -21 49 -52q2 -6 2 -11q0 -30 -38 -60q-91 -71 -264 -212q-36 -29 -79 -29q-42 0 -92 26q-42 21 -49 52q-2 6 -2 11zM323 568 q180 77 230 192q18 41 18 64q0 28 -28 28h-2q-50 -3 -103 -70q-79 -98 -112 -204z" />
<glyph unicode="&#xea;" horiz-adv-x="851" d="M41 325q0 52 10 112q39 225 161 379q148 186 368 196h12q68 0 131 -42q75 -49 75 -121v-2q0 -165 -179 -302q-156 -120 -346 -154q-8 -43 -8 -78q0 -85 45 -129q38 -37 89 -37q60 0 137 50q59 40 188 168q26 25 57 25t68 -24q36 -25 49 -48q6 -9 6 -19q0 -18 -20 -37 q-264 -265 -493 -265q-120 0 -230 72q-120 78 -120 256zM140 1129q0 27 34 54q49 40 149 122q77 62 125 100q8 10 22 19q2 1 3 2q32 26 71 26h18q38 0 71 -26q1 -1 3 -2q14 -9 22 -19q48 -38 125 -100q99 -82 149 -122q34 -27 34 -54q0 -5 -2 -10q-6 -28 -44 -47 q-45 -23 -83 -23t-71 26q-109 89 -213 174q-104 -85 -214 -174q-32 -26 -71 -26q-37 0 -82 23q-38 19 -44 47q-2 5 -2 10zM323 568q180 77 230 192q18 41 18 64q0 28 -28 28h-2q-50 -3 -103 -70q-79 -98 -112 -204z" />
<glyph unicode="&#xeb;" horiz-adv-x="851" d="M41 325q0 52 10 112q39 225 161 379q148 186 368 196h12q68 0 131 -42q75 -49 75 -121v-2q0 -165 -179 -302q-156 -120 -346 -154q-8 -43 -8 -78q0 -85 45 -129q38 -37 89 -37q60 0 137 50q59 40 188 168q26 25 57 25t68 -24q36 -25 49 -48q6 -9 6 -19q0 -18 -20 -37 q-264 -265 -493 -265q-120 0 -230 72q-120 78 -120 256zM176 1195q0 14 6 32l12 25l10 27q33 79 117 79q22 0 50 -7q41 -8 74 -41q26 -26 26 -56q0 -15 -7 -31l-21 -52q-32 -82 -118 -82q-23 0 -47 7q-44 8 -77 42q-25 26 -25 57zM323 568q180 77 230 192q18 41 18 64 q0 28 -28 28h-2q-50 -3 -103 -70q-79 -98 -112 -204zM658 1172l1 27l-1 29q0 85 77 118q21 9 48 14q13 3 27 3q28 0 58 -12q33 -14 45 -42q6 -13 6 -31l2 -56v-4q0 -85 -78 -117q-21 -9 -46 -13q-14 -3 -29 -3q-29 0 -58 12q-33 14 -45 42q-6 14 -7 33z" />
<glyph unicode="&#xec;" horiz-adv-x="419" d="M-102 1342q0 5 2 11q7 31 49 52q50 26 92 26q43 0 79 -29q56 -45 111 -95q111 -91 166 -136q38 -30 38 -60q0 -5 -2 -11q-7 -31 -49 -52q-50 -26 -92 -26q-43 0 -79 29q-173 141 -277 231q-38 30 -38 60zM39 64q0 5 1 9q29 202 90 737q4 35 42 55q31 18 74 18h5 q45 0 75 -19q29 -18 29 -47v-7q-61 -535 -90 -737q-5 -35 -43 -55q-34 -18 -80 -18q-45 1 -75 19q-28 18 -28 45z" />
<glyph unicode="&#xed;" horiz-adv-x="419" d="M19 1100q0 30 38 60q55 45 97 77q111 90 167 135q36 29 79 29q42 0 92 -26q42 -21 49 -52q2 -6 2 -11q0 -30 -38 -60q-91 -71 -264 -212q-36 -29 -79 -29q-42 0 -92 26q-42 21 -49 52q-2 6 -2 11zM39 64q0 5 1 9q29 202 90 737q4 35 42 55q31 18 74 18h5q45 0 75 -19 q29 -18 29 -47v-7q-61 -535 -90 -737q-5 -35 -43 -55q-34 -18 -80 -18q-45 1 -75 19q-28 18 -28 45z" />
<glyph unicode="&#xee;" horiz-adv-x="419" d="M-126 1063q0 27 34 54q49 40 149 122q77 62 125 100q8 10 22 19q2 1 3 2q32 26 71 26h18q38 0 71 -26q1 -1 3 -2q14 -9 22 -19q48 -38 125 -100q99 -82 149 -122q34 -27 34 -54q0 -5 -2 -10q-6 -28 -44 -47q-45 -23 -83 -23t-71 26q-109 89 -213 174q-104 -85 -214 -174 q-32 -26 -71 -26q-37 0 -82 23q-38 19 -44 47q-2 5 -2 10zM39 64q0 5 1 9q29 202 90 737q4 35 42 55q31 18 74 18h5q45 0 75 -19q29 -18 29 -47v-7q-61 -535 -90 -737q-5 -35 -43 -55q-34 -18 -80 -18q-45 1 -75 19q-28 18 -28 45z" />
<glyph unicode="&#xef;" horiz-adv-x="419" d="M-92 1161q0 14 6 32l12 25l10 27q33 79 117 79q22 0 50 -7q41 -8 74 -41q26 -26 26 -56q0 -15 -7 -31l-21 -52q-32 -82 -118 -82q-23 0 -47 7q-44 8 -77 42q-25 26 -25 57zM39 64q0 5 1 9q29 202 90 737q4 35 42 55q31 18 74 18h5q45 0 75 -19q29 -18 29 -47v-7 q-61 -535 -90 -737q-5 -35 -43 -55q-34 -18 -80 -18q-45 1 -75 19q-28 18 -28 45zM390 1138l1 27l-1 29q0 85 77 118q21 9 48 14q13 3 27 3q28 0 58 -12q33 -14 45 -42q6 -13 6 -31l2 -56v-4q0 -85 -78 -117q-21 -9 -46 -13q-14 -3 -29 -3q-29 0 -58 12q-33 14 -45 42 q-6 14 -7 33z" />
<glyph unicode="&#xf0;" horiz-adv-x="1374" d="M80 212q0 34 9 72q99 443 800 648q-62 95 -143 186q-105 -63 -169 -91q-33 -14 -65 -14q-52 0 -100 39q-27 22 -27 47v7q6 31 61 55q68 30 173 88q-113 108 -239 202q-36 28 -36 55q0 4 2 10q7 28 49 49q50 22 90 22q45 0 81 -26q137 -104 248 -205q112 56 207 78 q19 4 37 4q29 0 54 -10q39 -13 57 -43q9 -16 9 -29q0 -14 -9 -28q-21 -31 -79 -44q-66 -16 -146 -54q350 -364 350 -695q0 -52 -9 -102q-35 -204 -165 -350q-144 -160 -357 -191q-69 -10 -137 -10q-171 0 -327 65q-219 91 -219 265zM344 267q0 -17 2 -35q13 -104 88 -156 q62 -42 155 -42h12q217 8 327 161q105 148 105 316q0 130 -63 273q-261 -82 -426 -203q-200 -145 -200 -314z" />
<glyph unicode="&#xf1;" horiz-adv-x="1051" d="M34 173q0 18 2 38q46 469 46 489q1 35 36 56q32 18 78 18t77 -18q34 -20 34 -54v-2q-2 -79 -31 -326q89 156 132 214q80 110 208 149q45 13 86 13q88 0 156 -62q80 -75 99 -251q30 -285 44 -285q26 10 50 10q49 0 94 -40q24 -20 24 -41q0 -4 -1 -8q-5 -29 -54 -47 q-70 -26 -127 -26q-83 0 -140 54q-84 79 -102 262q-18 170 -32 213q-17 49 -42 49q-31 0 -75 -74q-120 -203 -130 -220q-96 -152 -141 -196q-72 -70 -149 -70q-32 0 -65 12q-77 30 -77 143zM232 960q0 9 2 17q32 150 103 215q50 47 115 47q26 0 53 -7q19 -6 133 -85 q55 -23 90 -23q13 0 23 3q36 12 64 49q35 39 57 69q18 22 44 22q19 0 43 -12q23 -12 31 -31q2 -7 2 -13v-10q0 -49 -26 -112q-30 -69 -85.5 -114.5t-119.5 -64.5q-10 -2 -21 -2q-42 0 -95 41q-22 18 -58 38q-85 48 -140 50q-8 0 -16 -3q-48 -18 -76 -91q-5 -28 -28 -40 q-14 -8 -29 -8q-8 0 -17 2q-25 6 -38 26q-11 16 -11 37z" />
<glyph unicode="&#xf2;" horiz-adv-x="936" d="M32 331v18q4 174 91 344q90 178 222 256q14 10 34 17q10 5 23 7q74 23 142 23q102 0 189 -52q152 -90 168 -287q2 -28 2 -56q0 -189 -113 -349q-131 -185 -349 -236q-68 -16 -125 -16q-121 0 -194 72q-90 87 -90 259zM124 1434q0 5 2 11q7 31 49 52q50 26 92 26 q43 0 79 -29q56 -45 111 -95q111 -91 166 -136q38 -30 38 -60q0 -5 -2 -11q-7 -31 -49 -52q-50 -26 -92 -26q-43 0 -79 29q-173 141 -277 231q-38 30 -38 60zM247 337q0 -38 4 -73q15 -117 81 -117q10 0 21 3q139 33 232 158q91 120 94 266v17q0 105 -35 179q-37 80 -103 80 q-23 0 -49 -10q-92 -42 -160 -165q-57 -104 -76 -222q-9 -60 -9 -116z" />
<glyph unicode="&#xf3;" horiz-adv-x="936" d="M32 331v18q4 174 91 344q90 178 222 256q14 10 34 17q10 5 23 7q74 23 142 23q102 0 189 -52q152 -90 168 -287q2 -28 2 -56q0 -189 -113 -349q-131 -185 -349 -236q-68 -16 -125 -16q-121 0 -194 72q-90 87 -90 259zM247 337q0 -38 4 -73q15 -117 81 -117q10 0 21 3 q139 33 232 158q91 120 94 266v17q0 105 -35 179q-37 80 -103 80q-23 0 -49 -10q-92 -42 -160 -165q-57 -104 -76 -222q-9 -60 -9 -116zM290 1173q0 30 38 60q55 45 97 77q111 90 167 135q36 29 79 29q42 0 92 -26q42 -21 49 -52q2 -6 2 -11q0 -30 -38 -60 q-91 -71 -264 -212q-36 -29 -79 -29q-42 0 -92 26q-42 21 -49 52q-2 6 -2 11z" />
<glyph unicode="&#xf4;" horiz-adv-x="936" d="M32 331v18q4 174 91 344q90 178 222 256q14 10 34 17q10 5 23 7q74 23 142 23q102 0 189 -52q152 -90 168 -287q2 -28 2 -56q0 -189 -113 -349q-131 -185 -349 -236q-68 -16 -125 -16q-121 0 -194 72q-90 87 -90 259zM176 1122q0 27 34 54q49 40 149 122q77 62 125 100 q8 10 22 19q2 1 3 2q32 26 71 26h18q38 0 71 -26q1 -1 3 -2q14 -9 22 -19q48 -38 125 -100q99 -82 149 -122q34 -27 34 -54q0 -5 -2 -10q-6 -28 -44 -47q-45 -23 -83 -23t-71 26q-109 89 -213 174q-104 -85 -214 -174q-32 -26 -71 -26q-37 0 -82 23q-38 19 -44 47 q-2 5 -2 10zM247 337q0 -38 4 -73q15 -117 81 -117q10 0 21 3q139 33 232 158q91 120 94 266v17q0 105 -35 179q-37 80 -103 80q-23 0 -49 -10q-92 -42 -160 -165q-57 -104 -76 -222q-9 -60 -9 -116z" />
<glyph unicode="&#xf5;" horiz-adv-x="936" d="M32 331v18q4 174 91 344q90 178 222 256q14 10 34 17q10 5 23 7q74 23 142 23q102 0 189 -52q152 -90 168 -287q2 -28 2 -56q0 -189 -113 -349q-131 -185 -349 -236q-68 -16 -125 -16q-121 0 -194 72q-90 87 -90 259zM230 1133q0 9 2 17q32 150 103 215q50 47 115 47 q26 0 53 -7q19 -6 133 -85q55 -23 90 -23q13 0 23 3q36 12 64 49q35 39 57 69q18 22 44 22q19 0 43 -12q23 -12 31 -31q2 -7 2 -13v-10q0 -49 -26 -112q-30 -69 -85.5 -114.5t-119.5 -64.5q-10 -2 -21 -2q-42 0 -95 41q-22 18 -58 38q-85 48 -140 50q-8 0 -16 -3 q-48 -18 -76 -91q-5 -28 -28 -40q-14 -8 -29 -8q-8 0 -17 2q-25 6 -38 26q-11 16 -11 37zM247 337q0 -38 4 -73q15 -117 81 -117q10 0 21 3q139 33 232 158q91 120 94 266v17q0 105 -35 179q-37 80 -103 80q-23 0 -49 -10q-92 -42 -160 -165q-57 -104 -76 -222 q-9 -60 -9 -116z" />
<glyph unicode="&#xf6;" horiz-adv-x="936" d="M32 331v18q4 174 91 344q90 178 222 256q14 10 34 17q10 5 23 7q74 23 142 23q102 0 189 -52q152 -90 168 -287q2 -28 2 -56q0 -189 -113 -349q-131 -185 -349 -236q-68 -16 -125 -16q-121 0 -194 72q-90 87 -90 259zM209 1199q0 14 6 32l12 25l10 27q33 79 117 79 q22 0 50 -7q41 -8 74 -41q26 -26 26 -56q0 -15 -7 -31l-21 -52q-32 -82 -118 -82q-23 0 -47 7q-44 8 -77 42q-25 26 -25 57zM247 337q0 -38 4 -73q15 -117 81 -117q10 0 21 3q139 33 232 158q91 120 94 266v17q0 105 -35 179q-37 80 -103 80q-23 0 -49 -10 q-92 -42 -160 -165q-57 -104 -76 -222q-9 -60 -9 -116zM691 1176l1 27l-1 29q0 85 77 118q21 9 48 14q13 3 27 3q28 0 58 -12q33 -14 45 -42q6 -13 6 -31l2 -56v-4q0 -85 -78 -117q-21 -9 -46 -13q-14 -3 -29 -3q-29 0 -58 12q-33 14 -45 42q-6 14 -7 33z" />
<glyph unicode="&#xf7;" horiz-adv-x="1110" d="M87 810v3q0 33 29 54q33 24 85 24h6l710 -21q57 -2 90 -29q30 -25 30 -58q0 -35 -30 -59q-32 -24 -84 -24h-6l-710 21q-57 2 -90 30q-30 24 -30 59zM387 352q0 16 7 34l13 26l12 26q38 81 133 81q26 0 57 -6q47 -9 85 -42q29 -27 29 -58q0 -15 -8 -32l-23 -53 q-37 -83 -135 -83q-26 0 -54 6q-50 9 -88 44q-28 26 -28 57zM387 1148q0 16 7 34l13 26l12 26q38 81 133 81q26 0 57 -6q47 -9 85 -42q29 -27 29 -58q0 -15 -8 -32l-23 -53q-37 -83 -135 -83q-26 0 -54 6q-50 9 -88 44q-28 26 -28 57z" />
<glyph unicode="&#xf8;" horiz-adv-x="936" d="M36 331v18q4 174 91 344q90 178 222 256q14 10 34 17q10 5 23 7q74 23 142 23q30 0 59 -4l94 211q22 33 67 33q23 0 51 -8q35 -10 50 -32q7 -11 7 -23q0 -15 -11 -33l-97 -217q123 -90 137 -266q2 -28 2 -56q0 -189 -113 -349q-131 -185 -349 -236q-46 -11 -87 -14 l-99 -222q-24 -34 -69 -34q-23 0 -51 9q-35 11 -50 33q-6 10 -6 21q0 16 10 33l85 191q-28 16 -52 39q-90 87 -90 259zM251 337q0 -38 4 -73q3 -23 8 -42l280 628q-22 0 -47 -10q-92 -42 -160 -165q-57 -104 -76 -222q-9 -60 -9 -116zM436 178q88 43 153 130q91 120 94 266 v17q0 62 -12 113z" />
<glyph unicode="&#xf9;" horiz-adv-x="958" d="M28 427q0 39 3 83q13 204 31 370q0 35 36 56q29 17 66 17h4q46 0 77 -18q35 -21 35 -56q-47 -331 -47 -452q0 -33 3 -50q25 -155 140 -206q29 -13 57 -13q25 0 49 10q57 23 99 98q137 226 139 599q0 35 35 55q32 19 77 19q46 0 78 -19q34 -19 34 -53v-2q-1 -275 -62 -458 q-94 -310 -333 -388q-57 -19 -116 -19q-75 0 -153 31q-134 52 -215 177q-37 77 -37 219zM128 1352q0 5 2 11q7 31 49 52q50 26 92 26q43 0 79 -29q56 -45 111 -95q111 -91 166 -136q38 -30 38 -60q0 -5 -2 -11q-7 -31 -49 -52q-50 -26 -92 -26q-43 0 -79 29 q-173 141 -277 231q-38 30 -38 60z" />
<glyph unicode="&#xfa;" horiz-adv-x="958" d="M28 427q0 39 3 83q13 204 31 370q0 35 36 56q29 17 66 17h4q46 0 77 -18q35 -21 35 -56q-47 -331 -47 -452q0 -33 3 -50q25 -155 140 -206q29 -13 57 -13q25 0 49 10q57 23 99 98q137 226 139 599q0 35 35 55q32 19 77 19q46 0 78 -19q34 -19 34 -53v-2q-1 -275 -62 -458 q-94 -310 -333 -388q-57 -19 -116 -19q-75 0 -153 31q-134 52 -215 177q-37 77 -37 219zM311 1107q0 30 38 60q55 45 97 77q111 90 167 135q36 29 79 29q42 0 92 -26q42 -21 49 -52q2 -6 2 -11q0 -30 -38 -60q-91 -71 -264 -212q-36 -29 -79 -29q-42 0 -92 26q-42 21 -49 52 q-2 6 -2 11z" />
<glyph unicode="&#xfb;" horiz-adv-x="958" d="M28 427q0 39 3 83q13 204 31 370q0 35 36 56q29 17 66 17h4q46 0 77 -18q35 -21 35 -56q-47 -331 -47 -452q0 -33 3 -50q25 -155 140 -206q29 -13 57 -13q25 0 49 10q57 23 99 98q137 226 139 599q0 35 35 55q32 19 77 19q46 0 78 -19q34 -19 34 -53v-2q-1 -275 -62 -458 q-94 -310 -333 -388q-57 -19 -116 -19q-75 0 -153 31q-134 52 -215 177q-37 77 -37 219zM121 1126q0 27 34 54q49 40 149 122q77 62 125 100q8 10 22 19q2 1 3 2q32 26 71 26h18q38 0 71 -26q1 -1 3 -2q14 -9 22 -19q48 -38 125 -100q99 -82 149 -122q34 -27 34 -54 q0 -5 -2 -10q-6 -28 -44 -47q-45 -23 -83 -23t-71 26q-109 89 -213 174q-104 -85 -214 -174q-32 -26 -71 -26q-37 0 -82 23q-38 19 -44 47q-2 5 -2 10z" />
<glyph unicode="&#xfc;" horiz-adv-x="958" d="M28 427q0 39 3 83q13 204 31 370q0 35 36 56q29 17 66 17h4q46 0 77 -18q35 -21 35 -56q-47 -331 -47 -452q0 -33 3 -50q25 -155 140 -206q29 -13 57 -13q25 0 49 10q57 23 99 98q137 226 139 599q0 35 35 55q32 19 77 19q46 0 78 -19q34 -19 34 -53v-2q-1 -275 -62 -458 q-94 -310 -333 -388q-57 -19 -116 -19q-75 0 -153 31q-134 52 -215 177q-37 77 -37 219zM170 1234q0 14 6 32l12 25l10 27q33 79 117 79q22 0 50 -7q41 -8 74 -41q26 -26 26 -56q0 -15 -7 -31l-21 -52q-32 -82 -118 -82q-23 0 -47 7q-44 8 -77 42q-25 26 -25 57zM652 1211 l1 27l-1 29q0 85 77 118q21 9 48 14q13 3 27 3q28 0 58 -12q33 -14 45 -42q6 -13 6 -31l2 -56v-4q0 -85 -78 -117q-21 -9 -46 -13q-14 -3 -29 -3q-29 0 -58 12q-33 14 -45 42q-6 14 -7 33z" />
<glyph unicode="&#xfd;" horiz-adv-x="1047" d="M-43 -361q0 9 4 19q12 24 53 40q39 15 72 17q49 4 82 -24q88 -78 173 -93q23 -5 44 -3q86 6 144 69.5t88 141.5q34 84 84 259q-59 -62 -127 -82q-57 -19 -116 -19q-75 0 -153 31q-134 52 -215 177q-37 77 -37 219q0 39 3 83q13 204 31 370q0 35 36 56q29 17 66 17h4 q46 0 77 -18q35 -21 35 -56q-47 -331 -47 -452q0 -33 3 -50q25 -155 140 -206q29 -13 57 -13q25 0 49 10q57 23 99 98q137 226 139 599q0 35 35 55q32 19 77 19q36 0 58 -19q34 -19 34 -53v-2q-1 -179 -34.5 -471.5t-82.5 -478.5q-38 -174 -155 -309q-111 -120 -262 -130 q-51 -4 -107 5q-181 31 -328 159q-21 17 -23 35zM257 1045q0 30 38 60q55 45 97 77q111 90 167 135q36 29 79 29q42 0 92 -26q42 -21 49 -52q2 -6 2 -11q0 -30 -38 -60q-91 -71 -264 -212q-36 -29 -79 -29q-42 0 -92 26q-42 21 -49 52q-2 6 -2 11z" />
<glyph unicode="&#xfe;" horiz-adv-x="1300" d="M90 -370q0 12 5 24q0 21 45.5 450.5t122.5 1186.5q18 82 138 82h9q53 0 86 -21q30 -19 30 -49q0 -6 -2 -12q-42 -206 -66 -388q176 141 422 158q19 1 37 1q182 0 278 -106q84 -90 84 -234q0 -38 -6 -78q-44 -332 -300 -530q-203 -157 -440 -157q-60 0 -123 10 q-21 -311 -65 -358q-10 -38 -57 -54q-28 -11 -60 -11q-16 0 -33 3q-52 6 -81 33q-24 21 -24 50zM421 204q0 -93 106 -94q93 0 171 54q129 88 218 228q94 148 102 295q1 17 1 33q0 122 -61 173q-30 24 -69 24q-75 0 -246 -76t-196 -309t-26 -325v-3z" />
<glyph unicode="&#xff;" horiz-adv-x="1036" d="M-43 -361q0 9 4 19q12 24 53 40q39 15 72 17q49 4 82 -24q88 -78 173 -93q23 -5 44 -3q86 6 144 69.5t88 141.5q34 84 84 259q-59 -62 -127 -82q-57 -19 -116 -19q-75 0 -153 31q-134 52 -215 177q-37 77 -37 219q0 39 3 83q13 204 31 370q0 35 36 56q29 17 66 17h4 q46 0 77 -18q35 -21 35 -56q-47 -331 -47 -452q0 -33 3 -50q25 -155 140 -206q29 -13 57 -13q25 0 49 10q57 23 99 98q137 226 139 599q0 35 35 55q32 19 77 19q36 0 58 -19q34 -19 34 -53v-2q-1 -179 -34.5 -471.5t-82.5 -478.5q-38 -174 -155 -309q-111 -120 -262 -130 q-51 -4 -107 5q-181 31 -328 159q-21 17 -23 35zM205 1086q0 14 6 32l12 25l10 27q33 79 117 79q22 0 50 -7q41 -8 74 -41q26 -26 26 -56q0 -15 -7 -31l-21 -52q-32 -82 -118 -82q-23 0 -47 7q-44 8 -77 42q-25 26 -25 57zM687 1063l1 27l-1 29q0 85 77 118q21 9 48 14 q13 3 27 3q28 0 58 -12q33 -14 45 -42q6 -13 6 -31l2 -56v-4q0 -85 -78 -117q-21 -9 -46 -13q-14 -3 -29 -3q-29 0 -58 12q-33 14 -45 42q-6 14 -7 33z" />
<glyph unicode="&#x152;" horiz-adv-x="2477" d="M80 494q0 75 14 158q49 297 223 531q186 249 456 337q20 9 41 14q15 3 31 4q86 15 165 15q228 0 396 -120q5 -4 10 -7q31 33 109 37l815 56h12q48 0 78 -21t30 -57q-2 -33 -32 -60q-33 -29 -88 -32q-116 -9 -347 -24q-229 -15 -345 -24q-7 -78 -22 -237 q-15 -157 -24 -237q96 8 295 23q195 15 296 22h12q49 0 79 -21q29 -21 29 -55q0 -35 -30 -60q-33 -30 -90 -33q-101 -9 -305 -24t-306 -23q-49 -349 -66 -493q63 -12 147 -12q95 0 215 15q322 37 357 39h6q52 0 85 -24q29 -21 29 -54v-3q0 -35 -30 -60q-33 -27 -90 -29 q-84 -3 -230 -18q-174 -19 -234 -22q-70 -5 -135 -5q-189 0 -322 42q-65 23 -65 66v8q2 28 20 161q-266 -257 -629 -301q-45 -6 -87 -6q-245 0 -372 186q-101 146 -101 348zM340 482q0 -79 15 -151q43 -201 202 -201q27 0 59 6q268 52 474 258q210 210 249 477q9 63 9 118 q0 176 -86 281q-91 112 -256 112q-57 0 -123 -13q-189 -51 -335 -258q-124 -176 -178 -395q-30 -123 -30 -234z" />
<glyph unicode="&#x153;" horiz-adv-x="1540" d="M32 331v18q4 174 91 344q90 178 222 256q14 10 34 17q10 5 23 7q74 23 142 23q102 0 189 -52q100 -59 141 -164q13 18 27 36q148 186 368 196h12q68 0 131 -42q75 -49 75 -121v-2q0 -165 -179 -302q-156 -120 -346 -154q-8 -43 -8 -78q0 -85 45 -129q38 -37 89 -37 q60 0 137 50q59 40 188 168q26 25 57 25t68 -24q36 -25 49 -48q6 -9 6 -19q0 -18 -20 -37q-264 -265 -493 -265q-120 0 -230 72q-72 47 -101 131q-123 -141 -308 -184q-68 -16 -125 -16q-121 0 -194 72q-90 87 -90 259zM247 337q0 -38 4 -73q15 -117 81 -117q10 0 21 3 q139 33 232 158q91 120 94 266v17q0 105 -35 179q-37 80 -103 80q-23 0 -49 -10q-92 -42 -160 -165q-57 -104 -76 -222q-9 -60 -9 -116zM1012 568q180 77 230 192q18 41 18 64q0 28 -28 28h-2q-50 -3 -103 -70q-79 -98 -112 -204z" />
<glyph unicode="&#x178;" horiz-adv-x="1465" d="M10 1400q0 12 6 22q15 29 65 44q45 13 81 13q58 0 94 -36q76 -88 237 -264q161 -177 235 -264q34 27 171 148.5t299 378.5q33 45 94 45q32 0 72 -12q50 -15 68 -44q9 -13 9 -30q0 -21 -18 -45q-56 -111 -252 -343q-119 -131 -223 -222q-7 -8 -25 -26q-18 -21 -29 -28 q-7 -12 -25 -17q-15 -70 -40 -245t-52 -389q-4 -41 -48 -65q-39 -21 -93 -21q-52 2 -87 23q-33 21 -33 55v8q14 108 41 322q27 216 40 324l-566 624q-21 24 -21 44zM353 1731q0 14 6 32l12 25l10 27q33 79 117 79q22 0 50 -7q41 -8 74 -41q26 -26 26 -56q0 -15 -7 -31 l-21 -52q-32 -82 -118 -82q-23 0 -47 7q-44 8 -77 42q-25 26 -25 57zM835 1708l1 27l-1 29q0 85 77 118q21 9 48 14q13 3 27 3q28 0 58 -12q33 -14 45 -42q6 -13 6 -31l2 -56v-4q0 -85 -78 -117q-21 -9 -46 -13q-14 -3 -29 -3q-29 0 -58 12q-33 14 -45 42q-6 14 -7 33z" />
<glyph unicode="&#x2c6;" horiz-adv-x="926" d="M50 1603q0 27 34 54q49 40 149 122q77 62 125 100q8 10 22 19q2 1 3 2q32 26 71 26h18q38 0 71 -26q1 -1 3 -2q14 -9 22 -19q48 -38 125 -100q99 -82 149 -122q34 -27 34 -54q0 -5 -2 -10q-6 -28 -44 -47q-45 -23 -83 -23t-71 26q-109 89 -213 174q-104 -85 -214 -174 q-32 -26 -71 -26q-37 0 -82 23q-38 19 -44 47q-2 5 -2 10z" />
<glyph unicode="&#x2dc;" horiz-adv-x="863" d="M50 1576q0 9 2 17q32 150 103 215q50 47 115 47q26 0 53 -7q19 -6 133 -85q55 -23 90 -23q13 0 23 3q36 12 64 49q35 39 57 69q18 22 44 22q19 0 43 -12q23 -12 31 -31q2 -7 2 -13v-10q0 -49 -26 -112q-30 -69 -85.5 -114.5t-119.5 -64.5q-10 -2 -21 -2q-42 0 -95 41 q-22 18 -58 38q-85 48 -140 50q-8 0 -16 -3q-48 -18 -76 -91q-5 -28 -28 -40q-14 -8 -29 -8q-8 0 -17 2q-25 6 -38 26q-11 16 -11 37z" />
<glyph unicode="&#x2000;" horiz-adv-x="990" />
<glyph unicode="&#x2001;" horiz-adv-x="1980" />
<glyph unicode="&#x2002;" horiz-adv-x="990" />
<glyph unicode="&#x2003;" horiz-adv-x="1980" />
<glyph unicode="&#x2004;" horiz-adv-x="660" />
<glyph unicode="&#x2005;" horiz-adv-x="495" />
<glyph unicode="&#x2006;" horiz-adv-x="330" />
<glyph unicode="&#x2007;" horiz-adv-x="330" />
<glyph unicode="&#x2008;" horiz-adv-x="247" />
<glyph unicode="&#x2009;" horiz-adv-x="396" />
<glyph unicode="&#x200a;" horiz-adv-x="110" />
<glyph unicode="&#x2010;" horiz-adv-x="877" d="M80 684v3q0 42 29 68q33 30 85 30h6l466 -5q57 -3 90 -36q30 -32 30 -73q0 -44 -30 -74q-32 -30 -84 -30h-6l-466 5q-57 3 -90 38q-30 30 -30 74z" />
<glyph unicode="&#x2011;" horiz-adv-x="877" d="M80 684v3q0 42 29 68q33 30 85 30h6l466 -5q57 -3 90 -36q30 -32 30 -73q0 -44 -30 -74q-32 -30 -84 -30h-6l-466 5q-57 3 -90 38q-30 30 -30 74z" />
<glyph unicode="&#x2012;" horiz-adv-x="877" d="M80 684v3q0 42 29 68q33 30 85 30h6l466 -5q57 -3 90 -36q30 -32 30 -73q0 -44 -30 -74q-32 -30 -84 -30h-6l-466 5q-57 3 -90 38q-30 30 -30 74z" />
<glyph unicode="&#x2013;" horiz-adv-x="1111" d="M80 110q0 34 30 57q33 24 86 24h6l709 -21q57 -2 90 -29q30 -25 30 -58q0 -35 -30 -59q-31 -24 -84 -24h-6l-177 6l-45 2h-33l-12 1h-43l-8 2h-37l-354 10q-57 2 -90 30q-30 24 -32 59z" />
<glyph unicode="&#x2014;" horiz-adv-x="1214" d="M80 86q0 34 30 58q33 27 90 27h815q57 0 90 -27q30 -24 30 -58q0 -35 -30 -59q-33 -27 -90 -27h-815q-57 0 -90 27q-30 24 -30 59z" />
<glyph unicode="&#x2018;" horiz-adv-x="476" d="M72 1090q0 150 68 263q92 145 160 166q20 2 37 2q92 0 116 -60q5 -12 5 -24q0 -26 -23 -48q-29 -29 -69 -87.5t-43 -215.5q0 -41 6 -86q2 -6 2 -12q0 -31 -30 -51q-32 -21 -82 -22h-5q-121 0 -135 85q-7 47 -7 90z" />
<glyph unicode="&#x2019;" horiz-adv-x="476" d="M10 999q0 26 23 48q29 29 69 87.5t43 215.5q0 41 -6 86q-2 6 -2 12q0 31 30 51q32 21 82 22h5q121 0 135 -85q7 -47 7 -90q0 -150 -68 -263q-92 -145 -160 -166q-20 -2 -37 -2q-92 0 -116 60q-5 12 -5 24z" />
<glyph unicode="&#x201a;" horiz-adv-x="476" d="M10 -219q0 26 23 48q29 29 69 87.5t43 215.5q0 41 -6 86q-2 6 -2 12q0 31 30 51q32 21 82 22h5q121 0 135 -85q7 -47 7 -90q0 -150 -68 -263q-92 -145 -160 -166q-20 -2 -37 -2q-92 0 -116 60q-5 12 -5 24z" />
<glyph unicode="&#x201c;" horiz-adv-x="912" d="M72 1090q0 150 68 263q92 145 160 166q20 2 37 2q92 0 116 -60q5 -12 5 -24q0 -26 -23 -48q-29 -29 -69 -87.5t-43 -215.5q0 -41 6 -86q2 -6 2 -12q0 -31 -30 -51q-32 -21 -82 -22h-5q-121 0 -135 85q-7 47 -7 90zM481 1090q0 150 68 263q92 145 160 166q20 2 37 2 q92 0 116 -60q5 -12 5 -24q0 -26 -23 -48q-29 -29 -69 -87.5t-43 -215.5q0 -41 6 -86q2 -6 2 -12q0 -31 -30 -51q-32 -21 -82 -22h-5q-121 0 -135 85q-7 47 -7 90z" />
<glyph unicode="&#x201d;" horiz-adv-x="827" d="M25 999q0 26 23 48q29 29 69 87.5t43 215.5q0 41 -6 86q-2 6 -2 12q0 31 30 51q32 21 82 22h5q121 0 135 -85q7 -47 7 -90q0 -150 -68 -263q-92 -145 -160 -166q-20 -2 -37 -2q-92 0 -116 60q-5 12 -5 24zM404 999q0 26 23 48q29 29 69 87.5t43 215.5q0 41 -6 86 q-2 6 -2 12q0 31 30 51q32 21 82 22h5q121 0 135 -85q7 -47 7 -90q0 -150 -68 -263q-92 -145 -160 -166q-20 -2 -37 -2q-92 0 -116 60q-5 12 -5 24z" />
<glyph unicode="&#x201e;" horiz-adv-x="836" d="M31 -219q0 26 23 48q29 29 69 87.5t43 215.5q0 41 -6 86q-2 6 -2 12q0 31 30 51q32 21 82 22h5q121 0 135 -85q7 -47 7 -90q0 -150 -68 -263q-92 -145 -160 -166q-20 -2 -37 -2q-92 0 -116 60q-5 12 -5 24zM410 -219q0 26 23 48q29 29 69 87.5t43 215.5q0 41 -6 86 q-2 6 -2 12q0 31 30 51q32 21 82 22h5q121 0 135 -85q7 -47 7 -90q0 -150 -68 -263q-92 -145 -160 -166q-20 -2 -37 -2q-92 0 -116 60q-5 12 -5 24z" />
<glyph unicode="&#x2022;" horiz-adv-x="859" d="M50 676q0 41 16 89l29 69l27 72q86 216 301 216q58 0 128 -17q107 -24 192 -113q66 -71 66 -153q0 -41 -18 -86l-52 -142q-84 -223 -305 -223q-59 0 -122 17q-113 24 -199 117q-63 70 -63 154z" />
<glyph unicode="&#x2026;" horiz-adv-x="2048" d="M80 120q0 17 7 37l13 29l12 30q38 90 133 90q26 0 57 -7q47 -10 85 -47q29 -30 29 -64q0 -17 -8 -36l-23 -59q-37 -93 -135 -93q-26 0 -54 7q-50 10 -88 49q-28 29 -28 64zM763 120q0 17 7 37l13 29l12 30q38 90 133 90q26 0 57 -7q47 -10 85 -47q29 -30 29 -64 q0 -17 -8 -36l-23 -59q-37 -93 -135 -93q-26 0 -54 7q-50 10 -88 49q-28 29 -28 64zM1446 120q0 17 7 37l13 29l12 30q38 90 133 90q26 0 57 -7q47 -10 85 -47q29 -30 29 -64q0 -17 -8 -36l-23 -59q-37 -93 -135 -93q-26 0 -54 7q-50 10 -88 49q-28 29 -28 64z" />
<glyph unicode="&#x202f;" horiz-adv-x="396" />
<glyph unicode="&#x2039;" horiz-adv-x="926" d="M193 758v17q0 39 37 71q2 2 4 3q11 14 25 23q55 47 143 124q116 100 174 149q38 34 76 34q6 0 14 -1q39 -7 66 -44q33 -45 33 -83q0 -39 -37 -71q-137 -110 -286 -214q150 -104 286 -213q37 -32 37 -71q0 -38 -33 -83q-27 -37 -66 -44q-8 -1 -14 -1q-38 0 -76 34 q-58 49 -174 149q-88 77 -143 124q-14 9 -25 23q-2 1 -4 3q-37 32 -37 71z" />
<glyph unicode="&#x203a;" horiz-adv-x="926" d="M193 482q0 39 37 71q137 110 287 214q-150 104 -287 213q-37 32 -37 71q0 38 33 83q27 37 67 44q7 1 14 1q38 0 76 -34q58 -49 173 -149q89 -77 143 -124q14 -9 26 -23q2 -1 3 -3q37 -32 37 -71v-17q0 -39 -37 -71q-1 -2 -3 -3q-12 -14 -26 -23q-54 -47 -143 -124 q-115 -100 -173 -149q-38 -34 -76 -34q-7 0 -14 1q-40 7 -67 44q-33 45 -33 83z" />
<glyph unicode="&#x205f;" horiz-adv-x="495" />
<glyph unicode="&#x20ac;" horiz-adv-x="1416" d="M91 541q0 34 18 58q19 27 53 29q29 1 125 5q6 27 14 54q20 71 43 137q-182 -1 -182 -2h-4q-30 0 -49 24q-18 24 -18 59q0 34 18 58q19 27 53 29q46 1 260 12q151 298 410 462q163 103 298 103q81 0 152 -37q100 -53 115 -174q3 -21 3 -44q0 -84 -39 -180q-24 -61 -96 -61 q-20 0 -41 4q-45 9 -68 35q-16 18 -16 39q0 13 7 28q14 36 14 66q0 51 -37 90q-33 35 -70 35q-31 0 -65 -24q-71 -50 -104 -80q-113 -103 -187 -216q-17 -26 -32 -51q56 3 102 3q120 0 170 -22q34 -20 38 -51v-8q0 -22 -16 -48q-32 -49 -69 -49q-15 0 -30 9h-283 q-46 -104 -69 -203q19 -2 31 -2h11q29 3 56 3q92 7 161 7q120 0 170 -22q34 -20 38 -51v-8q0 -22 -16 -48q-32 -49 -69 -49q-15 0 -30 9h-270q-36 0 -78 -8h-26q-2 -27 -2 -53q0 -169 72 -244q51 -56 134 -56q52 0 115 23q84 28 245 127q27 17 58 17q43 0 95 -33 q36 -23 41 -48v-8q0 -27 -37 -48q-326 -198 -547 -198q-143 0 -240 84q-125 108 -151 303q-7 50 -7 101q0 16 1 31q-102 0 -102 -1h-4q-30 0 -49 24q-18 24 -18 59z" />
<glyph unicode="&#x2122;" horiz-adv-x="1532" d="M40 1393v1q0 14 14 24q14 11 40 12q63 3 244 17q11 2 22 2h5q165 13 258 14q26 0 42 -10q13 -9 13 -23q-1 -14 -14 -23q-15 -11 -41 -11q-82 -1 -208 -11q-5 -43 -20 -114q-19 -122 -23 -144q-12 -69 -12 -125q0 -57 13 -101q1 -4 1 -8q0 -12 -10 -21q-14 -11 -38 -14 q-7 -1 -14 -1q-15 0 -28 5q-20 7 -24 21q-15 50 -15 113q0 54 11 119q4 30 21 146q14 73 19 116q-139 -12 -202 -15h-5q-22 0 -36 9q-13 8 -13 22zM643 894l1 2q25 173 51 281q31 130 32 131v-1q23 81 61 118q39 38 74 38q51 0 95 -82q23 -42 47 -115q28 -85 28 -87 q3 -10 11 -10q15 0 45 32q11 12 54 68q101 130 125 150q53 40 95 40q28 0 51 -20q39 -35 34 -119q-2 -26 -9 -69q-8 -51 -10 -63q-10 -95 -20 -174t-7 -124v-3q-1 -15 -16 -24q-17 -9 -41 -10q-24 0 -41 9q-19 10 -19 28q-3 48 6 118.5t17 142.5q22 203 22 204 q-24 -26 -63 -83q-41 -60 -46 -67q-73 -86 -136 -124q-27 -17 -54 -17q-25 0 -50 15q-45 28 -63 81l-24 88q-14 54 -30 85q0 1 -1 2q0 1 -1 2q-21 -53 -33 -96q-38 -148 -67 -345q-2 -17 -23 -27q-17 -10 -41 -10t-39 10q-16 9 -15 25z" />
<glyph unicode="&#x25fc;" horiz-adv-x="945" d="M0 0v945h945v-945h-945z" />
</font>
</defs>
</svg>
